<svg xmlns="http://www.w3.org/2000/svg" width="620" height="270" viewBox="0 0 620 270" fill="none" font-family="'DejaVu Sans Mono', 'IBM Plex Mono', Menlo, Consolas, monospace"><defs><filter id="drop-shadow" x="-20%" y="-20%" width="140%" height="140%"><feMerge><feMergeNode in="shadow1" /><feMergeNode in="shadow2" /><feMergeNode in="SourceGraphic" /></feMerge><feGaussianBlur in="SourceAlpha" stdDeviation="0" result="blur1" /><feOffset dx="0" dy="6" in="blur1" result="offsetblur1" /><feComponentTransfer in="offsetblur1" result="shadow1"><feFuncA type="linear" slope="0.07" /></feComponentTransfer><feGaussianBlur in="SourceAlpha" stdDeviation="1.5" result="blur2" /><feOffset dx="0" dy="1.6" in="blur2" result="offsetblur2" /><feComponentTransfer in="offsetblur2" result="shadow2"><feFuncA type="linear" slope="0.14" /></feComponentTransfer></filter><marker id="arrow-9c411f5adb" viewBox="0 0 13.36 13.36" refX="12.02" refY="6.68" markerWidth="8" markerHeight="8" orient="auto" markerUnits="userSpaceOnUse"><path d="M 0 2 L 12.02 6.68 L 0 11.36 Z" fill="#2563EB" opacity="0.9" /></marker><marker id="arrow-79cb33f245" viewBox="0 0 13.36 13.36" refX="12.02" refY="6.68" markerWidth="8" markerHeight="8" orient="auto" markerUnits="userSpaceOnUse"><path d="M 0 2 L 12.02 6.68 L 0 11.36 Z" fill="#2E2723" opacity="0.9" /></marker></defs><rect x="0" y="0" width="620" height="270" fill="#FFFFFF" /><g id="groups" /><g id="edges"><path d="M 200 80 L 220 80" stroke="#2E2723" stroke-width="2.5" stroke-linecap="round" stroke-linejoin="round" marker-end="url(#arrow-79cb33f245)" /><path d="M 380 80 L 390 80 L 410 80 L 420 80" stroke="#2E2723" stroke-width="2.5" stroke-linecap="round" stroke-linejoin="round" marker-end="url(#arrow-79cb33f245)" /><path d="M 200 190 L 400 190 L 400 87.5" stroke="#2563EB" stroke-width="2.5" stroke-linecap="round" stroke-linejoin="round" /></g><g id="edge-joins"><circle cx="400" cy="80" r="7.5" fill="#FFFFFF" stroke="#2563EB" stroke-width="2.5" /><text x="400" y="80" fill="#2563EB" text-anchor="middle" dominant-baseline="central" font-family="'DejaVu Sans Mono', 'IBM Plex Mono', Menlo, Consolas, monospace" font-size="10.5" font-weight="650">+</text></g><g id="nodes"><g id="source"><rect x="40" y="40" width="160" height="80" rx="10" ry="10" fill="#000000" opacity="0.05" /><rect x="40" y="40.8" width="160" height="80" rx="10" ry="10" fill="#000000" opacity="0.04" /><rect x="40" y="41.6" width="160" height="80" rx="10" ry="10" fill="#000000" opacity="0.04" /><rect x="40" y="42.4" width="160" height="80" rx="10" ry="10" fill="#000000" opacity="0.02" /><rect x="40" y="43.2" width="160" height="80" rx="10" ry="10" fill="#000000" opacity="0.01" /><rect x="40" y="44" width="160" height="80" rx="10" ry="10" fill="#000000" opacity="0.01" /><rect x="40" y="40" width="160" height="80" rx="10" ry="10" fill="#F6C8B8" stroke="#2E2723" stroke-width="2.5" /><text x="120" y="70.66" fill="#111111" text-anchor="middle" font-family="'DejaVu Sans Mono', 'IBM Plex Mono', Menlo, Consolas, monospace" font-size="16" font-weight="650">Source</text><text x="120" y="95.62" fill="#111111" text-anchor="middle" font-family="'DejaVu Sans Mono', 'IBM Plex Mono', Menlo, Consolas, monospace" font-size="12" font-weight="400" opacity="0.85">Primary request</text></g><g id="audit"><rect x="40" y="150" width="160" height="80" rx="10" ry="10" fill="#000000" opacity="0.05" /><rect x="40" y="150.8" width="160" height="80" rx="10" ry="10" fill="#000000" opacity="0.04" /><rect x="40" y="151.6" width="160" height="80" rx="10" ry="10" fill="#000000" opacity="0.04" /><rect x="40" y="152.4" width="160" height="80" rx="10" ry="10" fill="#000000" opacity="0.02" /><rect x="40" y="153.2" width="160" height="80" rx="10" ry="10" fill="#000000" opacity="0.01" /><rect x="40" y="154" width="160" height="80" rx="10" ry="10" fill="#000000" opacity="0.01" /><rect x="40" y="150" width="160" height="80" rx="10" ry="10" fill="#DBEAFE" stroke="#2E2723" stroke-width="2.5" /><text x="120" y="180.66" fill="#111111" text-anchor="middle" font-family="'DejaVu Sans Mono', 'IBM Plex Mono', Menlo, Consolas, monospace" font-size="16" font-weight="650">Audit</text><text x="120" y="205.62" fill="#111111" text-anchor="middle" font-family="'DejaVu Sans Mono', 'IBM Plex Mono', Menlo, Consolas, monospace" font-size="12" font-weight="400" opacity="0.85">Write side log</text></g><g id="worker"><rect x="220" y="40" width="160" height="80" rx="10" ry="10" fill="#000000" opacity="0.05" /><rect x="220" y="40.8" width="160" height="80" rx="10" ry="10" fill="#000000" opacity="0.04" /><rect x="220" y="41.6" width="160" height="80" rx="10" ry="10" fill="#000000" opacity="0.04" /><rect x="220" y="42.4" width="160" height="80" rx="10" ry="10" fill="#000000" opacity="0.02" /><rect x="220" y="43.2" width="160" height="80" rx="10" ry="10" fill="#000000" opacity="0.01" /><rect x="220" y="44" width="160" height="80" rx="10" ry="10" fill="#000000" opacity="0.01" /><rect x="220" y="40" width="160" height="80" rx="10" ry="10" fill="#CFE8C6" stroke="#2E2723" stroke-width="2.5" /><text x="300" y="70.66" fill="#111111" text-anchor="middle" font-family="'DejaVu Sans Mono', 'IBM Plex Mono', Menlo, Consolas, monospace" font-size="16" font-weight="650">Worker</text><text x="300" y="95.62" fill="#111111" text-anchor="middle" font-family="'DejaVu Sans Mono', 'IBM Plex Mono', Menlo, Consolas, monospace" font-size="12" font-weight="400" opacity="0.85">Prepare response</text></g><g id="done"><rect x="420" y="40" width="160" height="80" rx="10" ry="10" fill="#000000" opacity="0.05" /><rect x="420" y="40.8" width="160" height="80" rx="10" ry="10" fill="#000000" opacity="0.04" /><rect x="420" y="41.6" width="160" height="80" rx="10" ry="10" fill="#000000" opacity="0.04" /><rect x="420" y="42.4" width="160" height="80" rx="10" ry="10" fill="#000000" opacity="0.02" /><rect x="420" y="43.2" width="160" height="80" rx="10" ry="10" fill="#000000" opacity="0.01" /><rect x="420" y="44" width="160" height="80" rx="10" ry="10" fill="#000000" opacity="0.01" /><rect x="420" y="40" width="160" height="80" rx="10" ry="10" fill="#D9EAD3" stroke="#2E2723" stroke-width="2.5" /><text x="500" y="70.66" fill="#111111" text-anchor="middle" font-family="'DejaVu Sans Mono', 'IBM Plex Mono', Menlo, Consolas, monospace" font-size="16" font-weight="650">Done</text><text x="500" y="95.62" fill="#111111" text-anchor="middle" font-family="'DejaVu Sans Mono', 'IBM Plex Mono', Menlo, Consolas, monospace" font-size="12" font-weight="400" opacity="0.85">Return result</text></g></g></svg>