<svg xmlns="http://www.w3.org/2000/svg" width="1264" height="442" viewBox="0 0 1264 442" fill="none" font-family="Inter, 'Geist Sans', 'Segoe UI', Roboto, Helvetica, Arial, sans-serif"><defs><filter id="drop-shadow" x="-20%" y="-20%" width="140%" height="140%"><feMerge><feMergeNode in="shadow1" /><feMergeNode in="shadow2" /><feMergeNode in="SourceGraphic" /></feMerge><feGaussianBlur in="SourceAlpha" stdDeviation="0" result="blur1" /><feOffset dx="0" dy="6" in="blur1" result="offsetblur1" /><feComponentTransfer in="offsetblur1" result="shadow1"><feFuncA type="linear" slope="0.1" /></feComponentTransfer><feGaussianBlur in="SourceAlpha" stdDeviation="1.5" result="blur2" /><feOffset dx="0" dy="1.6" in="blur2" result="offsetblur2" /><feComponentTransfer in="offsetblur2" result="shadow2"><feFuncA type="linear" slope="0.19" /></feComponentTransfer></filter><marker id="arrow-54438514a8" viewBox="0 0 13.36 13.36" refX="12.02" refY="6.68" markerWidth="8" markerHeight="8" orient="auto" markerUnits="userSpaceOnUse"><path d="M 0 2 L 12.02 6.68 L 0 11.36 Z" fill="#111111" opacity="0.9" /></marker></defs><rect x="0" y="0" width="1264" height="442" fill="#FFFFFF" /><g id="groups"><rect x="40" y="40" width="388" height="142" rx="0" ry="0" stroke="#111111" stroke-width="1" stroke-dasharray="6 4" fill="#FFFFFF" fill-opacity="0.22" /><line x1="49.6" y1="40" x2="100" y2="40" stroke="#111111" stroke-width="3.5" stroke-linecap="round" /><text x="64" y="57.6" fill="#2B1B16" font-family="Inter, 'Geist Sans', 'Segoe UI', Roboto, Helvetica, Arial, sans-serif" font-size="12" font-weight="600">AWS Cloud</text><rect x="452" y="40" width="573" height="142" rx="0" ry="0" stroke="#111111" stroke-width="1" stroke-dasharray="6 4" fill="#FFFFFF" fill-opacity="0.22" /><line x1="461.6" y1="40" x2="512" y2="40" stroke="#111111" stroke-width="3.5" stroke-linecap="round" /><text x="476" y="57.6" fill="#2B1B16" font-family="Inter, 'Geist Sans', 'Segoe UI', Roboto, Helvetica, Arial, sans-serif" font-size="12" font-weight="600">GCP Cloud</text></g><g id="detail-panel-guides"><path d="M 693 158 L 587.2 183.2 L 481.4 238" stroke="#D1C8B4" stroke-width="1.5" stroke-linecap="round" stroke-linejoin="round" /><path d="M 789 158 L 894.8 183.2 L 1000.6 238" stroke="#D1C8B4" stroke-width="1.5" stroke-linecap="round" stroke-linejoin="round" /></g><g id="detail-panel-dataflow_detail"><rect x="443" y="238" width="596" height="164" rx="0" ry="0" fill="#000000" opacity="0.06" /><rect x="443" y="238.8" width="596" height="164" rx="0" ry="0" fill="#000000" opacity="0.06" /><rect x="443" y="239.6" width="596" height="164" rx="0" ry="0" fill="#000000" opacity="0.05" /><rect x="443" y="240.4" width="596" height="164" rx="0" ry="0" fill="#000000" opacity="0.03" /><rect x="443" y="241.2" width="596" height="164" rx="0" ry="0" fill="#000000" opacity="0.02" /><rect x="443" y="242" width="596" height="164" rx="0" ry="0" fill="#000000" opacity="0.01" /><rect x="443" y="238" width="596" height="164" rx="0" ry="0" stroke="#111111" stroke-width="2.5" fill="#FFFFFF" fill-opacity="0.82" /><text x="467" y="258.4" fill="#2B1B16" font-family="Inter, 'Geist Sans', 'Segoe UI', Roboto, Helvetica, Arial, sans-serif" font-size="12" font-weight="600">Dataflow Internal: Spark Job Pipeline</text></g><g id="edges"><path d="M 224 118 L 244 118" stroke="#111111" stroke-width="2.5" stroke-linecap="round" stroke-linejoin="round" marker-end="url(#arrow-54438514a8)" /><path d="M 404 118 L 414 118 L 466 118 L 476 118" stroke="#111111" stroke-width="2.5" stroke-linecap="round" stroke-linejoin="round" marker-end="url(#arrow-54438514a8)" /><path d="M 641 118 L 661 118" stroke="#111111" stroke-width="2.5" stroke-linecap="round" stroke-linejoin="round" marker-end="url(#arrow-54438514a8)" /><path d="M 821 118 L 841 118" stroke="#111111" stroke-width="2.5" stroke-linecap="round" stroke-linejoin="round" marker-end="url(#arrow-54438514a8)" /><path d="M 1001 118 L 1011 118 L 1039 118 L 1049 118" stroke="#111111" stroke-width="2.5" stroke-linecap="round" stroke-linejoin="round" marker-end="url(#arrow-54438514a8)" /><path d="M 655 338 L 675 338" stroke="#111111" stroke-width="2.5" stroke-linecap="round" stroke-linejoin="round" marker-end="url(#arrow-54438514a8)" /><path d="M 835 338 L 855 338" stroke="#111111" stroke-width="2.5" stroke-linecap="round" stroke-linejoin="round" marker-end="url(#arrow-54438514a8)" /></g><g id="edge-joins" /><g id="nodes"><g id="s3_raw"><rect x="64" y="78" width="160" height="80" rx="0" ry="0" fill="#000000" opacity="0.06" /><rect x="64" y="78.8" width="160" height="80" rx="0" ry="0" fill="#000000" opacity="0.06" /><rect x="64" y="79.6" width="160" height="80" rx="0" ry="0" fill="#000000" opacity="0.05" /><rect x="64" y="80.4" width="160" height="80" rx="0" ry="0" fill="#000000" opacity="0.03" /><rect x="64" y="81.2" width="160" height="80" rx="0" ry="0" fill="#000000" opacity="0.02" /><rect x="64" y="82" width="160" height="80" rx="0" ry="0" fill="#000000" opacity="0.01" /><rect x="64" y="78" width="160" height="80" rx="0" ry="0" fill="#D92938" stroke="#111111" stroke-width="2.5" /><text x="144" y="108.66" fill="#FFFFFF" text-anchor="middle" font-family="Inter, 'Geist Sans', 'Segoe UI', Roboto, Helvetica, Arial, sans-serif" font-size="16" font-weight="600">S3 Bucket</text><text x="144" y="133.62" fill="#FFFFFF" text-anchor="middle" font-family="Inter, 'Geist Sans', 'Segoe UI', Roboto, Helvetica, Arial, sans-serif" font-size="12" font-weight="400" opacity="0.85">Raw Data Storage</text></g><g id="lambda_trigger"><rect x="244" y="78" width="160" height="80" rx="0" ry="0" fill="#000000" opacity="0.06" /><rect x="244" y="78.8" width="160" height="80" rx="0" ry="0" fill="#000000" opacity="0.06" /><rect x="244" y="79.6" width="160" height="80" rx="0" ry="0" fill="#000000" opacity="0.05" /><rect x="244" y="80.4" width="160" height="80" rx="0" ry="0" fill="#000000" opacity="0.03" /><rect x="244" y="81.2" width="160" height="80" rx="0" ry="0" fill="#000000" opacity="0.02" /><rect x="244" y="82" width="160" height="80" rx="0" ry="0" fill="#000000" opacity="0.01" /><rect x="244" y="78" width="160" height="80" rx="0" ry="0" fill="#F2916D" stroke="#111111" stroke-width="2.5" /><text x="324" y="108.66" fill="#111111" text-anchor="middle" font-family="Inter, 'Geist Sans', 'Segoe UI', Roboto, Helvetica, Arial, sans-serif" font-size="16" font-weight="600">Lambda</text><text x="324" y="133.62" fill="#111111" text-anchor="middle" font-family="Inter, 'Geist Sans', 'Segoe UI', Roboto, Helvetica, Arial, sans-serif" font-size="12" font-weight="400" opacity="0.85">Event Trigger</text></g><g id="pubsub"><rect x="476" y="78" width="165" height="80" rx="0" ry="0" fill="#000000" opacity="0.06" /><rect x="476" y="78.8" width="165" height="80" rx="0" ry="0" fill="#000000" opacity="0.06" /><rect x="476" y="79.6" width="165" height="80" rx="0" ry="0" fill="#000000" opacity="0.05" /><rect x="476" y="80.4" width="165" height="80" rx="0" ry="0" fill="#000000" opacity="0.03" /><rect x="476" y="81.2" width="165" height="80" rx="0" ry="0" fill="#000000" opacity="0.02" /><rect x="476" y="82" width="165" height="80" rx="0" ry="0" fill="#000000" opacity="0.01" /><rect x="476" y="78" width="165" height="80" rx="0" ry="0" fill="#F1D194" stroke="#111111" stroke-width="2.5" /><text x="558.5" y="108.66" fill="#111111" text-anchor="middle" font-family="Inter, 'Geist Sans', 'Segoe UI', Roboto, Helvetica, Arial, sans-serif" font-size="16" font-weight="600">Cloud Pub/Sub</text><text x="558.5" y="133.62" fill="#111111" text-anchor="middle" font-family="Inter, 'Geist Sans', 'Segoe UI', Roboto, Helvetica, Arial, sans-serif" font-size="12" font-weight="400" opacity="0.85">Message Queue</text></g><g id="dataflow"><rect x="661" y="78" width="160" height="80" rx="0" ry="0" fill="#000000" opacity="0.06" /><rect x="661" y="78.8" width="160" height="80" rx="0" ry="0" fill="#000000" opacity="0.06" /><rect x="661" y="79.6" width="160" height="80" rx="0" ry="0" fill="#000000" opacity="0.05" /><rect x="661" y="80.4" width="160" height="80" rx="0" ry="0" fill="#000000" opacity="0.03" /><rect x="661" y="81.2" width="160" height="80" rx="0" ry="0" fill="#000000" opacity="0.02" /><rect x="661" y="82" width="160" height="80" rx="0" ry="0" fill="#000000" opacity="0.01" /><rect x="661" y="78" width="160" height="80" rx="0" ry="0" fill="#3B5145" stroke="#111111" stroke-width="2.5" /><text x="741" y="108.66" fill="#FFFFFF" text-anchor="middle" font-family="Inter, 'Geist Sans', 'Segoe UI', Roboto, Helvetica, Arial, sans-serif" font-size="16" font-weight="600">Dataflow</text><text x="741" y="133.62" fill="#FFFFFF" text-anchor="middle" font-family="Inter, 'Geist Sans', 'Segoe UI', Roboto, Helvetica, Arial, sans-serif" font-size="12" font-weight="400" opacity="0.85">Stream Processing</text></g><g id="bigquery"><rect x="841" y="78" width="160" height="80" rx="0" ry="0" fill="#000000" opacity="0.06" /><rect x="841" y="78.8" width="160" height="80" rx="0" ry="0" fill="#000000" opacity="0.06" /><rect x="841" y="79.6" width="160" height="80" rx="0" ry="0" fill="#000000" opacity="0.05" /><rect x="841" y="80.4" width="160" height="80" rx="0" ry="0" fill="#000000" opacity="0.03" /><rect x="841" y="81.2" width="160" height="80" rx="0" ry="0" fill="#000000" opacity="0.02" /><rect x="841" y="82" width="160" height="80" rx="0" ry="0" fill="#000000" opacity="0.01" /><rect x="841" y="78" width="160" height="80" rx="0" ry="0" fill="#243A2E" stroke="#111111" stroke-width="2.5" /><text x="921" y="108.66" fill="#FFFFFF" text-anchor="middle" font-family="Inter, 'Geist Sans', 'Segoe UI', Roboto, Helvetica, Arial, sans-serif" font-size="16" font-weight="600">BigQuery</text><text x="921" y="133.62" fill="#FFFFFF" text-anchor="middle" font-family="Inter, 'Geist Sans', 'Segoe UI', Roboto, Helvetica, Arial, sans-serif" font-size="12" font-weight="400" opacity="0.85">Data Warehouse</text></g><g id="bi_tool"><rect x="1049" y="78" width="175" height="80" rx="0" ry="0" fill="#000000" opacity="0.06" /><rect x="1049" y="78.8" width="175" height="80" rx="0" ry="0" fill="#000000" opacity="0.06" /><rect x="1049" y="79.6" width="175" height="80" rx="0" ry="0" fill="#000000" opacity="0.05" /><rect x="1049" y="80.4" width="175" height="80" rx="0" ry="0" fill="#000000" opacity="0.03" /><rect x="1049" y="81.2" width="175" height="80" rx="0" ry="0" fill="#000000" opacity="0.02" /><rect x="1049" y="82" width="175" height="80" rx="0" ry="0" fill="#000000" opacity="0.01" /><rect x="1049" y="78" width="175" height="80" rx="0" ry="0" fill="#D92938" stroke="#111111" stroke-width="2.5" /><text x="1136.5" y="108.66" fill="#FFFFFF" text-anchor="middle" font-family="Inter, 'Geist Sans', 'Segoe UI', Roboto, Helvetica, Arial, sans-serif" font-size="16" font-weight="600">Tableau/Looker</text><text x="1136.5" y="133.62" fill="#FFFFFF" text-anchor="middle" font-family="Inter, 'Geist Sans', 'Segoe UI', Roboto, Helvetica, Arial, sans-serif" font-size="12" font-weight="400" opacity="0.85">Analytics Dashboard</text></g><g id="detail-panel-dataflow_detail-clean"><rect x="467" y="298" width="188" height="80" rx="0" ry="0" fill="#000000" opacity="0.06" /><rect x="467" y="298.8" width="188" height="80" rx="0" ry="0" fill="#000000" opacity="0.06" /><rect x="467" y="299.6" width="188" height="80" rx="0" ry="0" fill="#000000" opacity="0.05" /><rect x="467" y="300.4" width="188" height="80" rx="0" ry="0" fill="#000000" opacity="0.03" /><rect x="467" y="301.2" width="188" height="80" rx="0" ry="0" fill="#000000" opacity="0.02" /><rect x="467" y="302" width="188" height="80" rx="0" ry="0" fill="#000000" opacity="0.01" /><rect x="467" y="298" width="188" height="80" rx="0" ry="0" fill="#D92938" stroke="#111111" stroke-width="2.5" /><text x="561" y="328.66" fill="#FFFFFF" text-anchor="middle" font-family="Inter, 'Geist Sans', 'Segoe UI', Roboto, Helvetica, Arial, sans-serif" font-size="16" font-weight="600">Cleaning</text><text x="561" y="353.62" fill="#FFFFFF" text-anchor="middle" font-family="Inter, 'Geist Sans', 'Segoe UI', Roboto, Helvetica, Arial, sans-serif" font-size="12" font-weight="400" opacity="0.85">Null check &amp; Type cast</text></g><g id="detail-panel-dataflow_detail-transform"><rect x="675" y="298" width="160" height="80" rx="0" ry="0" fill="#000000" opacity="0.06" /><rect x="675" y="298.8" width="160" height="80" rx="0" ry="0" fill="#000000" opacity="0.06" /><rect x="675" y="299.6" width="160" height="80" rx="0" ry="0" fill="#000000" opacity="0.05" /><rect x="675" y="300.4" width="160" height="80" rx="0" ry="0" fill="#000000" opacity="0.03" /><rect x="675" y="301.2" width="160" height="80" rx="0" ry="0" fill="#000000" opacity="0.02" /><rect x="675" y="302" width="160" height="80" rx="0" ry="0" fill="#000000" opacity="0.01" /><rect x="675" y="298" width="160" height="80" rx="0" ry="0" fill="#F2916D" stroke="#111111" stroke-width="2.5" /><text x="755" y="328.66" fill="#111111" text-anchor="middle" font-family="Inter, 'Geist Sans', 'Segoe UI', Roboto, Helvetica, Arial, sans-serif" font-size="16" font-weight="600">Transform</text><text x="755" y="353.62" fill="#111111" text-anchor="middle" font-family="Inter, 'Geist Sans', 'Segoe UI', Roboto, Helvetica, Arial, sans-serif" font-size="12" font-weight="400" opacity="0.85">Business Logic</text></g><g id="detail-panel-dataflow_detail-enrich"><rect x="855" y="298" width="160" height="80" rx="0" ry="0" fill="#000000" opacity="0.06" /><rect x="855" y="298.8" width="160" height="80" rx="0" ry="0" fill="#000000" opacity="0.06" /><rect x="855" y="299.6" width="160" height="80" rx="0" ry="0" fill="#000000" opacity="0.05" /><rect x="855" y="300.4" width="160" height="80" rx="0" ry="0" fill="#000000" opacity="0.03" /><rect x="855" y="301.2" width="160" height="80" rx="0" ry="0" fill="#000000" opacity="0.02" /><rect x="855" y="302" width="160" height="80" rx="0" ry="0" fill="#000000" opacity="0.01" /><rect x="855" y="298" width="160" height="80" rx="0" ry="0" fill="#F1D194" stroke="#111111" stroke-width="2.5" /><text x="935" y="328.66" fill="#111111" text-anchor="middle" font-family="Inter, 'Geist Sans', 'Segoe UI', Roboto, Helvetica, Arial, sans-serif" font-size="16" font-weight="600">Enrichment</text><text x="935" y="353.62" fill="#111111" text-anchor="middle" font-family="Inter, 'Geist Sans', 'Segoe UI', Roboto, Helvetica, Arial, sans-serif" font-size="12" font-weight="400" opacity="0.85">CRM Data Join</text></g></g></svg>