<svg xmlns="http://www.w3.org/2000/svg" width="1264" height="442" viewBox="0 0 1264 442" fill="none" font-family="'DejaVu Serif', Georgia, 'Times New Roman', serif"><defs><filter id="drop-shadow" x="-20%" y="-20%" width="140%" height="140%"><feMerge><feMergeNode in="shadow1" /><feMergeNode in="shadow2" /><feMergeNode in="SourceGraphic" /></feMerge><feGaussianBlur in="SourceAlpha" stdDeviation="12" result="blur1" /><feOffset dx="0" dy="7.5" in="blur1" result="offsetblur1" /><feComponentTransfer in="offsetblur1" result="shadow1"><feFuncA type="linear" slope="0.05" /></feComponentTransfer><feGaussianBlur in="SourceAlpha" stdDeviation="3.6" result="blur2" /><feOffset dx="0" dy="2" in="blur2" result="offsetblur2" /><feComponentTransfer in="offsetblur2" result="shadow2"><feFuncA type="linear" slope="0.11" /></feComponentTransfer></filter><marker id="arrow-aac30947d6" viewBox="0 0 13.36 13.36" refX="12.02" refY="6.68" markerWidth="8" markerHeight="8" orient="auto" markerUnits="userSpaceOnUse"><path d="M 0 2 L 12.02 6.68 L 0 11.36 Z" fill="#2C3540" opacity="0.9" /></marker></defs><rect x="0" y="0" width="1264" height="442" fill="#FFFFFF" /><g id="groups"><rect x="40" y="40" width="388" height="142" rx="22" ry="22" stroke="#425059" stroke-width="1.25" stroke-dasharray="7.5 5" fill="#171A26" fill-opacity="0.07" /><text x="64" y="57.6" fill="#171A26" font-family="'DejaVu Serif', Georgia, 'Times New Roman', serif" font-size="12" font-weight="650">AWS Cloud</text><rect x="452" y="40" width="573" height="142" rx="22" ry="22" stroke="#425059" stroke-width="1.25" stroke-dasharray="7.5 5" fill="#171A26" fill-opacity="0.07" /><text x="476" y="57.6" fill="#171A26" font-family="'DejaVu Serif', Georgia, 'Times New Roman', serif" font-size="12" font-weight="650">GCP Cloud</text></g><g id="detail-panel-guides"><path d="M 693 158 L 587.2 183.2 L 481.4 238" stroke="#808C8B" stroke-width="1.5" stroke-linecap="round" stroke-linejoin="round" /><path d="M 789 158 L 894.8 183.2 L 1000.6 238" stroke="#808C8B" stroke-width="1.5" stroke-linecap="round" stroke-linejoin="round" /></g><g id="detail-panel-dataflow_detail"><rect x="443" y="238" width="596" height="164" rx="18" ry="18" fill="#000000" opacity="0.04" /><rect x="440.6" y="236.6" width="600.8" height="168.8" rx="20.4" ry="20.4" fill="#000000" opacity="0.03" /><rect x="438.2" y="235.2" width="605.6" height="173.6" rx="22.8" ry="22.8" fill="#000000" opacity="0.03" /><rect x="435.8" y="233.8" width="610.4" height="178.4" rx="25.2" ry="25.2" fill="#000000" opacity="0.02" /><rect x="433.4" y="232.4" width="615.2" height="183.2" rx="27.6" ry="27.6" fill="#000000" opacity="0.01" /><rect x="431" y="231" width="620" height="188" rx="30" ry="30" fill="#000000" opacity="0" /><rect x="443" y="238" width="596" height="164" rx="18" ry="18" stroke="#425059" stroke-width="1.5" fill="#F7F9FB" fill-opacity="0.96" /><text x="467" y="258.4" fill="#171A26" font-family="'DejaVu Serif', Georgia, 'Times New Roman', serif" font-size="12" font-weight="650">Dataflow Internal: Spark Job Pipeline</text></g><g id="edges"><path d="M 224 118 L 244 118" stroke="#2C3540" stroke-width="1.75" stroke-linecap="round" stroke-linejoin="round" marker-end="url(#arrow-aac30947d6)" /><path d="M 404 118 L 414 118 L 466 118 L 476 118" stroke="#2C3540" stroke-width="1.75" stroke-linecap="round" stroke-linejoin="round" marker-end="url(#arrow-aac30947d6)" /><path d="M 641 118 L 661 118" stroke="#2C3540" stroke-width="1.75" stroke-linecap="round" stroke-linejoin="round" marker-end="url(#arrow-aac30947d6)" /><path d="M 821 118 L 841 118" stroke="#2C3540" stroke-width="1.75" stroke-linecap="round" stroke-linejoin="round" marker-end="url(#arrow-aac30947d6)" /><path d="M 1001 118 L 1011 118 L 1039 118 L 1049 118" stroke="#2C3540" stroke-width="1.75" stroke-linecap="round" stroke-linejoin="round" marker-end="url(#arrow-aac30947d6)" /><path d="M 655 338 L 675 338" stroke="#2C3540" stroke-width="1.75" stroke-linecap="round" stroke-linejoin="round" marker-end="url(#arrow-aac30947d6)" /><path d="M 835 338 L 855 338" stroke="#2C3540" stroke-width="1.75" stroke-linecap="round" stroke-linejoin="round" marker-end="url(#arrow-aac30947d6)" /></g><g id="edge-joins" /><g id="nodes"><g id="s3_raw"><rect x="64" y="78" width="160" height="80" rx="16" ry="16" fill="#000000" opacity="0.04" /><rect x="61.6" y="76.6" width="164.8" height="84.8" rx="18.4" ry="18.4" fill="#000000" opacity="0.03" /><rect x="59.2" y="75.2" width="169.6" height="89.6" rx="20.8" ry="20.8" fill="#000000" opacity="0.03" /><rect x="56.8" y="73.8" width="174.4" height="94.4" rx="23.2" ry="23.2" fill="#000000" opacity="0.02" /><rect x="54.4" y="72.4" width="179.2" height="99.2" rx="25.6" ry="25.6" fill="#000000" opacity="0.01" /><rect x="52" y="71" width="184" height="104" rx="28" ry="28" fill="#000000" opacity="0" /><rect x="64" y="78" width="160" height="80" rx="16" ry="16" fill="#171A26" stroke="#171A26" stroke-width="1.75" /><text x="144" y="108.66" fill="#FFFFFF" text-anchor="middle" font-family="'DejaVu Serif', Georgia, 'Times New Roman', serif" font-size="16" font-weight="650">S3 Bucket</text><text x="144" y="133.62" fill="#FFFFFF" text-anchor="middle" font-family="'DejaVu Serif', Georgia, 'Times New Roman', serif" font-size="12" font-weight="450" opacity="0.85">Raw Data Storage</text></g><g id="lambda_trigger"><rect x="244" y="78" width="160" height="80" rx="16" ry="16" fill="#000000" opacity="0.04" /><rect x="241.6" y="76.6" width="164.8" height="84.8" rx="18.4" ry="18.4" fill="#000000" opacity="0.03" /><rect x="239.2" y="75.2" width="169.6" height="89.6" rx="20.8" ry="20.8" fill="#000000" opacity="0.03" /><rect x="236.8" y="73.8" width="174.4" height="94.4" rx="23.2" ry="23.2" fill="#000000" opacity="0.02" /><rect x="234.4" y="72.4" width="179.2" height="99.2" rx="25.6" ry="25.6" fill="#000000" opacity="0.01" /><rect x="232" y="71" width="184" height="104" rx="28" ry="28" fill="#000000" opacity="0" /><rect x="244" y="78" width="160" height="80" rx="16" ry="16" fill="#2C3540" stroke="#171A26" stroke-width="1.75" /><text x="324" y="108.66" fill="#FFFFFF" text-anchor="middle" font-family="'DejaVu Serif', Georgia, 'Times New Roman', serif" font-size="16" font-weight="650">Lambda</text><text x="324" y="133.62" fill="#FFFFFF" text-anchor="middle" font-family="'DejaVu Serif', Georgia, 'Times New Roman', serif" font-size="12" font-weight="450" opacity="0.85">Event Trigger</text></g><g id="pubsub"><rect x="476" y="78" width="165" height="80" rx="16" ry="16" fill="#000000" opacity="0.04" /><rect x="473.6" y="76.6" width="169.8" height="84.8" rx="18.4" ry="18.4" fill="#000000" opacity="0.03" /><rect x="471.2" y="75.2" width="174.6" height="89.6" rx="20.8" ry="20.8" fill="#000000" opacity="0.03" /><rect x="468.8" y="73.8" width="179.4" height="94.4" rx="23.2" ry="23.2" fill="#000000" opacity="0.02" /><rect x="466.4" y="72.4" width="184.2" height="99.2" rx="25.6" ry="25.6" fill="#000000" opacity="0.01" /><rect x="464" y="71" width="189" height="104" rx="28" ry="28" fill="#000000" opacity="0" /><rect x="476" y="78" width="165" height="80" rx="16" ry="16" fill="#425059" stroke="#171A26" stroke-width="1.75" /><text x="558.5" y="108.66" fill="#FFFFFF" text-anchor="middle" font-family="'DejaVu Serif', Georgia, 'Times New Roman', serif" font-size="16" font-weight="650">Cloud Pub/Sub</text><text x="558.5" y="133.62" fill="#FFFFFF" text-anchor="middle" font-family="'DejaVu Serif', Georgia, 'Times New Roman', serif" font-size="12" font-weight="450" opacity="0.85">Message Queue</text></g><g id="dataflow"><rect x="661" y="78" width="160" height="80" rx="16" ry="16" fill="#000000" opacity="0.04" /><rect x="658.6" y="76.6" width="164.8" height="84.8" rx="18.4" ry="18.4" fill="#000000" opacity="0.03" /><rect x="656.2" y="75.2" width="169.6" height="89.6" rx="20.8" ry="20.8" fill="#000000" opacity="0.03" /><rect x="653.8" y="73.8" width="174.4" height="94.4" rx="23.2" ry="23.2" fill="#000000" opacity="0.02" /><rect x="651.4" y="72.4" width="179.2" height="99.2" rx="25.6" ry="25.6" fill="#000000" opacity="0.01" /><rect x="649" y="71" width="184" height="104" rx="28" ry="28" fill="#000000" opacity="0" /><rect x="661" y="78" width="160" height="80" rx="16" ry="16" fill="#657371" stroke="#171A26" stroke-width="1.75" /><text x="741" y="108.66" fill="#FFFFFF" text-anchor="middle" font-family="'DejaVu Serif', Georgia, 'Times New Roman', serif" font-size="16" font-weight="650">Dataflow</text><text x="741" y="133.62" fill="#FFFFFF" text-anchor="middle" font-family="'DejaVu Serif', Georgia, 'Times New Roman', serif" font-size="12" font-weight="450" opacity="0.85">Stream Processing</text></g><g id="bigquery"><rect x="841" y="78" width="160" height="80" rx="16" ry="16" fill="#000000" opacity="0.04" /><rect x="838.6" y="76.6" width="164.8" height="84.8" rx="18.4" ry="18.4" fill="#000000" opacity="0.03" /><rect x="836.2" y="75.2" width="169.6" height="89.6" rx="20.8" ry="20.8" fill="#000000" opacity="0.03" /><rect x="833.8" y="73.8" width="174.4" height="94.4" rx="23.2" ry="23.2" fill="#000000" opacity="0.02" /><rect x="831.4" y="72.4" width="179.2" height="99.2" rx="25.6" ry="25.6" fill="#000000" opacity="0.01" /><rect x="829" y="71" width="184" height="104" rx="28" ry="28" fill="#000000" opacity="0" /><rect x="841" y="78" width="160" height="80" rx="16" ry="16" fill="#808C8B" stroke="#171A26" stroke-width="1.75" /><text x="921" y="108.66" fill="#111111" text-anchor="middle" font-family="'DejaVu Serif', Georgia, 'Times New Roman', serif" font-size="16" font-weight="650">BigQuery</text><text x="921" y="133.62" fill="#111111" text-anchor="middle" font-family="'DejaVu Serif', Georgia, 'Times New Roman', serif" font-size="12" font-weight="450" opacity="0.85">Data Warehouse</text></g><g id="bi_tool"><rect x="1049" y="78" width="175" height="80" rx="16" ry="16" fill="#000000" opacity="0.04" /><rect x="1046.6" y="76.6" width="179.8" height="84.8" rx="18.4" ry="18.4" fill="#000000" opacity="0.03" /><rect x="1044.2" y="75.2" width="184.6" height="89.6" rx="20.8" ry="20.8" fill="#000000" opacity="0.03" /><rect x="1041.8" y="73.8" width="189.4" height="94.4" rx="23.2" ry="23.2" fill="#000000" opacity="0.02" /><rect x="1039.4" y="72.4" width="194.2" height="99.2" rx="25.6" ry="25.6" fill="#000000" opacity="0.01" /><rect x="1037" y="71" width="199" height="104" rx="28" ry="28" fill="#000000" opacity="0" /><rect x="1049" y="78" width="175" height="80" rx="16" ry="16" fill="#171A26" stroke="#171A26" stroke-width="1.75" /><text x="1136.5" y="108.66" fill="#FFFFFF" text-anchor="middle" font-family="'DejaVu Serif', Georgia, 'Times New Roman', serif" font-size="16" font-weight="650">Tableau/Looker</text><text x="1136.5" y="133.62" fill="#FFFFFF" text-anchor="middle" font-family="'DejaVu Serif', Georgia, 'Times New Roman', serif" font-size="12" font-weight="450" opacity="0.85">Analytics Dashboard</text></g><g id="detail-panel-dataflow_detail-clean"><rect x="467" y="298" width="188" height="80" rx="16" ry="16" fill="#000000" opacity="0.04" /><rect x="464.6" y="296.6" width="192.8" height="84.8" rx="18.4" ry="18.4" fill="#000000" opacity="0.03" /><rect x="462.2" y="295.2" width="197.6" height="89.6" rx="20.8" ry="20.8" fill="#000000" opacity="0.03" /><rect x="459.8" y="293.8" width="202.4" height="94.4" rx="23.2" ry="23.2" fill="#000000" opacity="0.02" /><rect x="457.4" y="292.4" width="207.2" height="99.2" rx="25.6" ry="25.6" fill="#000000" opacity="0.01" /><rect x="455" y="291" width="212" height="104" rx="28" ry="28" fill="#000000" opacity="0" /><rect x="467" y="298" width="188" height="80" rx="16" ry="16" fill="#171A26" stroke="#171A26" stroke-width="1.75" /><text x="561" y="328.66" fill="#FFFFFF" text-anchor="middle" font-family="'DejaVu Serif', Georgia, 'Times New Roman', serif" font-size="16" font-weight="650">Cleaning</text><text x="561" y="353.62" fill="#FFFFFF" text-anchor="middle" font-family="'DejaVu Serif', Georgia, 'Times New Roman', serif" font-size="12" font-weight="450" opacity="0.85">Null check &amp; Type cast</text></g><g id="detail-panel-dataflow_detail-transform"><rect x="675" y="298" width="160" height="80" rx="16" ry="16" fill="#000000" opacity="0.04" /><rect x="672.6" y="296.6" width="164.8" height="84.8" rx="18.4" ry="18.4" fill="#000000" opacity="0.03" /><rect x="670.2" y="295.2" width="169.6" height="89.6" rx="20.8" ry="20.8" fill="#000000" opacity="0.03" /><rect x="667.8" y="293.8" width="174.4" height="94.4" rx="23.2" ry="23.2" fill="#000000" opacity="0.02" /><rect x="665.4" y="292.4" width="179.2" height="99.2" rx="25.6" ry="25.6" fill="#000000" opacity="0.01" /><rect x="663" y="291" width="184" height="104" rx="28" ry="28" fill="#000000" opacity="0" /><rect x="675" y="298" width="160" height="80" rx="16" ry="16" fill="#2C3540" stroke="#171A26" stroke-width="1.75" /><text x="755" y="328.66" fill="#FFFFFF" text-anchor="middle" font-family="'DejaVu Serif', Georgia, 'Times New Roman', serif" font-size="16" font-weight="650">Transform</text><text x="755" y="353.62" fill="#FFFFFF" text-anchor="middle" font-family="'DejaVu Serif', Georgia, 'Times New Roman', serif" font-size="12" font-weight="450" opacity="0.85">Business Logic</text></g><g id="detail-panel-dataflow_detail-enrich"><rect x="855" y="298" width="160" height="80" rx="16" ry="16" fill="#000000" opacity="0.04" /><rect x="852.6" y="296.6" width="164.8" height="84.8" rx="18.4" ry="18.4" fill="#000000" opacity="0.03" /><rect x="850.2" y="295.2" width="169.6" height="89.6" rx="20.8" ry="20.8" fill="#000000" opacity="0.03" /><rect x="847.8" y="293.8" width="174.4" height="94.4" rx="23.2" ry="23.2" fill="#000000" opacity="0.02" /><rect x="845.4" y="292.4" width="179.2" height="99.2" rx="25.6" ry="25.6" fill="#000000" opacity="0.01" /><rect x="843" y="291" width="184" height="104" rx="28" ry="28" fill="#000000" opacity="0" /><rect x="855" y="298" width="160" height="80" rx="16" ry="16" fill="#425059" stroke="#171A26" stroke-width="1.75" /><text x="935" y="328.66" fill="#FFFFFF" text-anchor="middle" font-family="'DejaVu Serif', Georgia, 'Times New Roman', serif" font-size="16" font-weight="650">Enrichment</text><text x="935" y="353.62" fill="#FFFFFF" text-anchor="middle" font-family="'DejaVu Serif', Georgia, 'Times New Roman', serif" font-size="12" font-weight="450" opacity="0.85">CRM Data Join</text></g></g></svg>