<svg xmlns="http://www.w3.org/2000/svg" width="1267" height="442" viewBox="0 0 1267 442" fill="none" font-family="'DejaVu Sans', 'Trebuchet MS', 'Segoe UI', sans-serif"><defs><filter id="drop-shadow" x="-20%" y="-20%" width="140%" height="140%"><feMerge><feMergeNode in="shadow1" /><feMergeNode in="shadow2" /><feMergeNode in="SourceGraphic" /></feMerge><feGaussianBlur in="SourceAlpha" stdDeviation="8" result="blur1" /><feOffset dx="0" dy="6" in="blur1" result="offsetblur1" /><feComponentTransfer in="offsetblur1" result="shadow1"><feFuncA type="linear" slope="0.04" /></feComponentTransfer><feGaussianBlur in="SourceAlpha" stdDeviation="2.4" result="blur2" /><feOffset dx="0" dy="1.6" in="blur2" result="offsetblur2" /><feComponentTransfer in="offsetblur2" result="shadow2"><feFuncA type="linear" slope="0.08" /></feComponentTransfer></filter><marker id="arrow-c3f2b4e26b" viewBox="0 0 10.02 10.02" refX="9.02" refY="5.01" markerWidth="6" markerHeight="6" orient="auto" markerUnits="userSpaceOnUse"><path d="M 0 1.5 L 9.02 5.01 L 0 8.52 Z" fill="#8FB7CC" opacity="0.9" /></marker></defs><rect x="0" y="0" width="1267" height="442" fill="#FFFFFF" /><g id="groups"><rect x="40" y="40" width="389" height="142" rx="32" ry="32" stroke="#D8A7B5" stroke-width="1.1" stroke-dasharray="6.6 4.4" fill="#FFFFFF" fill-opacity="0.94" /><text x="64" y="57.6" fill="#8A7188" font-family="'DejaVu Sans', 'Trebuchet MS', 'Segoe UI', sans-serif" font-size="12" font-weight="650">AWS Cloud</text><rect x="453" y="40" width="575" height="142" rx="32" ry="32" stroke="#D8A7B5" stroke-width="1.1" stroke-dasharray="6.6 4.4" fill="#FFFFFF" fill-opacity="0.94" /><text x="477" y="57.6" fill="#8A7188" font-family="'DejaVu Sans', 'Trebuchet MS', 'Segoe UI', sans-serif" font-size="12" font-weight="650">GCP Cloud</text></g><g id="detail-panel-guides"><path d="M 695 158 L 588.7 183.2 L 482.4 238" stroke="#E9F3F7" stroke-width="1.5" stroke-linecap="round" stroke-linejoin="round" /><path d="M 791 158 L 897.3 183.2 L 1003.6 238" stroke="#E9F3F7" stroke-width="1.5" stroke-linecap="round" stroke-linejoin="round" /></g><g id="detail-panel-dataflow_detail"><rect x="444" y="238" width="598" height="164" rx="32" ry="32" fill="#000000" opacity="0.03" /><rect x="442.4" y="237.2" width="601.2" height="167.2" rx="33.6" ry="33.6" fill="#000000" opacity="0.02" /><rect x="440.8" y="236.4" width="604.4" height="170.4" rx="35.2" ry="35.2" fill="#000000" opacity="0.02" /><rect x="439.2" y="235.6" width="607.6" height="173.6" rx="36.8" ry="36.8" fill="#000000" opacity="0.01" /><rect x="437.6" y="234.8" width="610.8" height="176.8" rx="38.4" ry="38.4" fill="#000000" opacity="0.01" /><rect x="436" y="234" width="614" height="180" rx="40" ry="40" fill="#000000" opacity="0" /><rect x="444" y="238" width="598" height="164" rx="32" ry="32" stroke="#CFE3EC" stroke-width="1" fill="#FFFCFB" fill-opacity="0.98" /><text x="468" y="258.4" fill="#8A7188" font-family="'DejaVu Sans', 'Trebuchet MS', 'Segoe UI', sans-serif" font-size="12" font-weight="650">Dataflow Internal: Spark Job Pipeline</text></g><g id="edges"><path d="M 224 118 L 245 118" stroke="#8FB7CC" stroke-width="1.25" stroke-linecap="round" stroke-linejoin="round" marker-end="url(#arrow-c3f2b4e26b)" /><path d="M 405 118 L 415.5 118 L 466.5 118 L 477 118" stroke="#8FB7CC" stroke-width="1.25" stroke-linecap="round" stroke-linejoin="round" marker-end="url(#arrow-c3f2b4e26b)" /><path d="M 642 118 L 663 118" stroke="#8FB7CC" stroke-width="1.25" stroke-linecap="round" stroke-linejoin="round" marker-end="url(#arrow-c3f2b4e26b)" /><path d="M 823 118 L 844 118" stroke="#8FB7CC" stroke-width="1.25" stroke-linecap="round" stroke-linejoin="round" marker-end="url(#arrow-c3f2b4e26b)" /><path d="M 1004 118 L 1014.5 118 L 1041.5 118 L 1052 118" stroke="#8FB7CC" stroke-width="1.25" stroke-linecap="round" stroke-linejoin="round" marker-end="url(#arrow-c3f2b4e26b)" /><path d="M 656 338 L 677 338" stroke="#8FB7CC" stroke-width="1.25" stroke-linecap="round" stroke-linejoin="round" marker-end="url(#arrow-c3f2b4e26b)" /><path d="M 837 338 L 858 338" stroke="#8FB7CC" stroke-width="1.25" stroke-linecap="round" stroke-linejoin="round" marker-end="url(#arrow-c3f2b4e26b)" /></g><g id="nodes"><g id="s3_raw"><rect x="64" y="78" width="160" height="80" rx="28" ry="28" fill="#000000" opacity="0.03" /><rect x="62.4" y="77.2" width="163.2" height="83.2" rx="29.6" ry="29.6" fill="#000000" opacity="0.02" /><rect x="60.8" y="76.4" width="166.4" height="86.4" rx="31.2" ry="31.2" fill="#000000" opacity="0.02" /><rect x="59.2" y="75.6" width="169.6" height="89.6" rx="32.8" ry="32.8" fill="#000000" opacity="0.01" /><rect x="57.6" y="74.8" width="172.8" height="92.8" rx="34.4" ry="34.4" fill="#000000" opacity="0.01" /><rect x="56" y="74" width="176" height="96" rx="36" ry="36" fill="#000000" opacity="0" /><rect x="64" y="78" width="160" height="80" rx="28" ry="28" fill="#A8E6CF" stroke="#D8A7B5" stroke-width="1.25" /><text x="144" y="108.66" fill="#111111" text-anchor="middle" font-family="'DejaVu Sans', 'Trebuchet MS', 'Segoe UI', sans-serif" font-size="16" font-weight="650">S3 Bucket</text><text x="144" y="133.62" fill="#111111" text-anchor="middle" font-family="'DejaVu Sans', 'Trebuchet MS', 'Segoe UI', sans-serif" font-size="12" font-weight="500" opacity="0.85">Raw Data Storage</text></g><g id="lambda_trigger"><rect x="245" y="78" width="160" height="80" rx="28" ry="28" fill="#000000" opacity="0.03" /><rect x="243.4" y="77.2" width="163.2" height="83.2" rx="29.6" ry="29.6" fill="#000000" opacity="0.02" /><rect x="241.8" y="76.4" width="166.4" height="86.4" rx="31.2" ry="31.2" fill="#000000" opacity="0.02" /><rect x="240.2" y="75.6" width="169.6" height="89.6" rx="32.8" ry="32.8" fill="#000000" opacity="0.01" /><rect x="238.6" y="74.8" width="172.8" height="92.8" rx="34.4" ry="34.4" fill="#000000" opacity="0.01" /><rect x="237" y="74" width="176" height="96" rx="36" ry="36" fill="#000000" opacity="0" /><rect x="245" y="78" width="160" height="80" rx="28" ry="28" fill="#DCEDC1" stroke="#D8A7B5" stroke-width="1.25" /><text x="325" y="108.66" fill="#111111" text-anchor="middle" font-family="'DejaVu Sans', 'Trebuchet MS', 'Segoe UI', sans-serif" font-size="16" font-weight="650">Lambda</text><text x="325" y="133.62" fill="#111111" text-anchor="middle" font-family="'DejaVu Sans', 'Trebuchet MS', 'Segoe UI', sans-serif" font-size="12" font-weight="500" opacity="0.85">Event Trigger</text></g><g id="pubsub"><rect x="477" y="78" width="165" height="80" rx="28" ry="28" fill="#000000" opacity="0.03" /><rect x="475.4" y="77.2" width="168.2" height="83.2" rx="29.6" ry="29.6" fill="#000000" opacity="0.02" /><rect x="473.8" y="76.4" width="171.4" height="86.4" rx="31.2" ry="31.2" fill="#000000" opacity="0.02" /><rect x="472.2" y="75.6" width="174.6" height="89.6" rx="32.8" ry="32.8" fill="#000000" opacity="0.01" /><rect x="470.6" y="74.8" width="177.8" height="92.8" rx="34.4" ry="34.4" fill="#000000" opacity="0.01" /><rect x="469" y="74" width="181" height="96" rx="36" ry="36" fill="#000000" opacity="0" /><rect x="477" y="78" width="165" height="80" rx="28" ry="28" fill="#FFE8D4" stroke="#D8A7B5" stroke-width="1.25" /><text x="559.5" y="108.66" fill="#111111" text-anchor="middle" font-family="'DejaVu Sans', 'Trebuchet MS', 'Segoe UI', sans-serif" font-size="16" font-weight="650">Cloud Pub/Sub</text><text x="559.5" y="133.62" fill="#111111" text-anchor="middle" font-family="'DejaVu Sans', 'Trebuchet MS', 'Segoe UI', sans-serif" font-size="12" font-weight="500" opacity="0.85">Message Queue</text></g><g id="dataflow"><rect x="663" y="78" width="160" height="80" rx="28" ry="28" fill="#000000" opacity="0.03" /><rect x="661.4" y="77.2" width="163.2" height="83.2" rx="29.6" ry="29.6" fill="#000000" opacity="0.02" /><rect x="659.8" y="76.4" width="166.4" height="86.4" rx="31.2" ry="31.2" fill="#000000" opacity="0.02" /><rect x="658.2" y="75.6" width="169.6" height="89.6" rx="32.8" ry="32.8" fill="#000000" opacity="0.01" /><rect x="656.6" y="74.8" width="172.8" height="92.8" rx="34.4" ry="34.4" fill="#000000" opacity="0.01" /><rect x="655" y="74" width="176" height="96" rx="36" ry="36" fill="#000000" opacity="0" /><rect x="663" y="78" width="160" height="80" rx="28" ry="28" fill="#FFAAA5" stroke="#D8A7B5" stroke-width="1.25" /><text x="743" y="108.66" fill="#111111" text-anchor="middle" font-family="'DejaVu Sans', 'Trebuchet MS', 'Segoe UI', sans-serif" font-size="16" font-weight="650">Dataflow</text><text x="743" y="133.62" fill="#111111" text-anchor="middle" font-family="'DejaVu Sans', 'Trebuchet MS', 'Segoe UI', sans-serif" font-size="12" font-weight="500" opacity="0.85">Stream Processing</text></g><g id="bigquery"><rect x="844" y="78" width="160" height="80" rx="28" ry="28" fill="#000000" opacity="0.03" /><rect x="842.4" y="77.2" width="163.2" height="83.2" rx="29.6" ry="29.6" fill="#000000" opacity="0.02" /><rect x="840.8" y="76.4" width="166.4" height="86.4" rx="31.2" ry="31.2" fill="#000000" opacity="0.02" /><rect x="839.2" y="75.6" width="169.6" height="89.6" rx="32.8" ry="32.8" fill="#000000" opacity="0.01" /><rect x="837.6" y="74.8" width="172.8" height="92.8" rx="34.4" ry="34.4" fill="#000000" opacity="0.01" /><rect x="836" y="74" width="176" height="96" rx="36" ry="36" fill="#000000" opacity="0" /><rect x="844" y="78" width="160" height="80" rx="28" ry="28" fill="#FF8BA6" stroke="#D8A7B5" stroke-width="1.25" /><text x="924" y="108.66" fill="#111111" text-anchor="middle" font-family="'DejaVu Sans', 'Trebuchet MS', 'Segoe UI', sans-serif" font-size="16" font-weight="650">BigQuery</text><text x="924" y="133.62" fill="#111111" text-anchor="middle" font-family="'DejaVu Sans', 'Trebuchet MS', 'Segoe UI', sans-serif" font-size="12" font-weight="500" opacity="0.85">Data Warehouse</text></g><g id="bi_tool"><rect x="1052" y="78" width="175" height="80" rx="28" ry="28" fill="#000000" opacity="0.03" /><rect x="1050.4" y="77.2" width="178.2" height="83.2" rx="29.6" ry="29.6" fill="#000000" opacity="0.02" /><rect x="1048.8" y="76.4" width="181.4" height="86.4" rx="31.2" ry="31.2" fill="#000000" opacity="0.02" /><rect x="1047.2" y="75.6" width="184.6" height="89.6" rx="32.8" ry="32.8" fill="#000000" opacity="0.01" /><rect x="1045.6" y="74.8" width="187.8" height="92.8" rx="34.4" ry="34.4" fill="#000000" opacity="0.01" /><rect x="1044" y="74" width="191" height="96" rx="36" ry="36" fill="#000000" opacity="0" /><rect x="1052" y="78" width="175" height="80" rx="28" ry="28" fill="#A8E6CF" stroke="#D8A7B5" stroke-width="1.25" /><text x="1139.5" y="108.66" fill="#111111" text-anchor="middle" font-family="'DejaVu Sans', 'Trebuchet MS', 'Segoe UI', sans-serif" font-size="16" font-weight="650">Tableau/Looker</text><text x="1139.5" y="133.62" fill="#111111" text-anchor="middle" font-family="'DejaVu Sans', 'Trebuchet MS', 'Segoe UI', sans-serif" font-size="12" font-weight="500" opacity="0.85">Analytics Dashboard</text></g><g id="detail-panel-dataflow_detail-clean"><rect x="468" y="298" width="188" height="80" rx="28" ry="28" fill="#000000" opacity="0.03" /><rect x="466.4" y="297.2" width="191.2" height="83.2" rx="29.6" ry="29.6" fill="#000000" opacity="0.02" /><rect x="464.8" y="296.4" width="194.4" height="86.4" rx="31.2" ry="31.2" fill="#000000" opacity="0.02" /><rect x="463.2" y="295.6" width="197.6" height="89.6" rx="32.8" ry="32.8" fill="#000000" opacity="0.01" /><rect x="461.6" y="294.8" width="200.8" height="92.8" rx="34.4" ry="34.4" fill="#000000" opacity="0.01" /><rect x="460" y="294" width="204" height="96" rx="36" ry="36" fill="#000000" opacity="0" /><rect x="468" y="298" width="188" height="80" rx="28" ry="28" fill="#A8E6CF" stroke="#D8A7B5" stroke-width="1.25" /><text x="562" y="328.66" fill="#111111" text-anchor="middle" font-family="'DejaVu Sans', 'Trebuchet MS', 'Segoe UI', sans-serif" font-size="16" font-weight="650">Cleaning</text><text x="562" y="353.62" fill="#111111" text-anchor="middle" font-family="'DejaVu Sans', 'Trebuchet MS', 'Segoe UI', sans-serif" font-size="12" font-weight="500" opacity="0.85">Null check &amp; Type cast</text></g><g id="detail-panel-dataflow_detail-transform"><rect x="677" y="298" width="160" height="80" rx="28" ry="28" fill="#000000" opacity="0.03" /><rect x="675.4" y="297.2" width="163.2" height="83.2" rx="29.6" ry="29.6" fill="#000000" opacity="0.02" /><rect x="673.8" y="296.4" width="166.4" height="86.4" rx="31.2" ry="31.2" fill="#000000" opacity="0.02" /><rect x="672.2" y="295.6" width="169.6" height="89.6" rx="32.8" ry="32.8" fill="#000000" opacity="0.01" /><rect x="670.6" y="294.8" width="172.8" height="92.8" rx="34.4" ry="34.4" fill="#000000" opacity="0.01" /><rect x="669" y="294" width="176" height="96" rx="36" ry="36" fill="#000000" opacity="0" /><rect x="677" y="298" width="160" height="80" rx="28" ry="28" fill="#DCEDC1" stroke="#D8A7B5" stroke-width="1.25" /><text x="757" y="328.66" fill="#111111" text-anchor="middle" font-family="'DejaVu Sans', 'Trebuchet MS', 'Segoe UI', sans-serif" font-size="16" font-weight="650">Transform</text><text x="757" y="353.62" fill="#111111" text-anchor="middle" font-family="'DejaVu Sans', 'Trebuchet MS', 'Segoe UI', sans-serif" font-size="12" font-weight="500" opacity="0.85">Business Logic</text></g><g id="detail-panel-dataflow_detail-enrich"><rect x="858" y="298" width="160" height="80" rx="28" ry="28" fill="#000000" opacity="0.03" /><rect x="856.4" y="297.2" width="163.2" height="83.2" rx="29.6" ry="29.6" fill="#000000" opacity="0.02" /><rect x="854.8" y="296.4" width="166.4" height="86.4" rx="31.2" ry="31.2" fill="#000000" opacity="0.02" /><rect x="853.2" y="295.6" width="169.6" height="89.6" rx="32.8" ry="32.8" fill="#000000" opacity="0.01" /><rect x="851.6" y="294.8" width="172.8" height="92.8" rx="34.4" ry="34.4" fill="#000000" opacity="0.01" /><rect x="850" y="294" width="176" height="96" rx="36" ry="36" fill="#000000" opacity="0" /><rect x="858" y="298" width="160" height="80" rx="28" ry="28" fill="#FFE8D4" stroke="#D8A7B5" stroke-width="1.25" /><text x="938" y="328.66" fill="#111111" text-anchor="middle" font-family="'DejaVu Sans', 'Trebuchet MS', 'Segoe UI', sans-serif" font-size="16" font-weight="650">Enrichment</text><text x="938" y="353.62" fill="#111111" text-anchor="middle" font-family="'DejaVu Sans', 'Trebuchet MS', 'Segoe UI', sans-serif" font-size="12" font-weight="500" opacity="0.85">CRM Data Join</text></g></g></svg>