<svg xmlns="http://www.w3.org/2000/svg" width="1224" height="420.5" viewBox="0 0 1224 420.5" fill="none" font-family="'IBM Plex Sans', 'DejaVu Sans', sans-serif"><defs><filter id="drop-shadow" x="-20%" y="-20%" width="140%" height="140%"><feMerge><feMergeNode in="shadow1" /><feMergeNode in="shadow2" /><feMergeNode in="SourceGraphic" /></feMerge><feGaussianBlur in="SourceAlpha" stdDeviation="8" result="blur1" /><feOffset dx="0" dy="4.5" in="blur1" result="offsetblur1" /><feComponentTransfer in="offsetblur1" result="shadow1"><feFuncA type="linear" slope="0.05" /></feComponentTransfer><feGaussianBlur in="SourceAlpha" stdDeviation="2.4" result="blur2" /><feOffset dx="0" dy="1.2" in="blur2" result="offsetblur2" /><feComponentTransfer in="offsetblur2" result="shadow2"><feFuncA type="linear" slope="0.1" /></feComponentTransfer></filter><marker id="arrow-2d6b23a3f0" viewBox="0 0 15.03 15.03" refX="13.53" refY="7.51" markerWidth="9" markerHeight="9" orient="auto" markerUnits="userSpaceOnUse"><path d="M 0 2.25 L 13.53 7.51 L 0 12.78 Z" fill="#52606D" opacity="0.9" /></marker></defs><rect x="0" y="0" width="1224" height="420.5" fill="#FFFFFF" /><g id="groups"><rect x="36" y="36" width="382" height="136.5" rx="18" ry="18" stroke="#7B8794" stroke-width="1.2" stroke-dasharray="7.2 4.8" fill="#EFF3F6" fill-opacity="0.16" /><text x="62" y="52.2" fill="#1F2933" font-family="'IBM Plex Sans', 'DejaVu Sans', sans-serif" font-size="11" font-weight="650">AWS Cloud</text><rect x="444" y="36" width="556" height="136.5" rx="18" ry="18" stroke="#7B8794" stroke-width="1.2" stroke-dasharray="7.2 4.8" fill="#EFF3F6" fill-opacity="0.16" /><text x="470" y="52.2" fill="#1F2933" font-family="'IBM Plex Sans', 'DejaVu Sans', sans-serif" font-size="11" font-weight="650">GCP Cloud</text></g><g id="detail-panel-guides"><path d="M 675.2 146.5 L 577.4 171.7 L 479.6 228.5" stroke="#CBD5E1" stroke-width="1.5" stroke-linecap="round" stroke-linejoin="round" /><path d="M 768.8 146.5 L 866.6 171.7 L 964.4 228.5" stroke="#CBD5E1" stroke-width="1.5" stroke-linecap="round" stroke-linejoin="round" /></g><g id="detail-panel-dataflow_detail"><rect x="438" y="228.5" width="568" height="156" rx="20" ry="20" fill="#000000" opacity="0.03" /><rect x="436.4" y="227.5" width="571.2" height="159.2" rx="21.6" ry="21.6" fill="#000000" opacity="0.03" /><rect x="434.8" y="226.5" width="574.4" height="162.4" rx="23.2" ry="23.2" fill="#000000" opacity="0.02" /><rect x="433.2" y="225.5" width="577.6" height="165.6" rx="24.8" ry="24.8" fill="#000000" opacity="0.02" /><rect x="431.6" y="224.5" width="580.8" height="168.8" rx="26.4" ry="26.4" fill="#000000" opacity="0.01" /><rect x="430" y="223.5" width="584" height="172" rx="28" ry="28" fill="#000000" opacity="0" /><rect x="438" y="228.5" width="568" height="156" rx="20" ry="20" stroke="#E2E8F0" stroke-width="1" fill="#FFFFFF" fill-opacity="1" /><text x="462" y="247.9" fill="#64748B" font-family="'IBM Plex Sans', 'DejaVu Sans', sans-serif" font-size="11" font-weight="650">Dataflow Internal: Spark Job Pipeline</text></g><g id="edges"><path d="M 218 110.5 L 236 110.5" stroke="#52606D" stroke-width="1.6" stroke-linecap="round" stroke-linejoin="round" marker-end="url(#arrow-2d6b23a3f0)" /><path d="M 392 110.5 L 403.25 110.5 L 458.75 110.5 L 470 110.5" stroke="#52606D" stroke-width="1.6" stroke-linecap="round" stroke-linejoin="round" marker-end="url(#arrow-2d6b23a3f0)" /><path d="M 626 110.5 L 644 110.5" stroke="#52606D" stroke-width="1.6" stroke-linecap="round" stroke-linejoin="round" marker-end="url(#arrow-2d6b23a3f0)" /><path d="M 800 110.5 L 818 110.5" stroke="#52606D" stroke-width="1.6" stroke-linecap="round" stroke-linejoin="round" marker-end="url(#arrow-2d6b23a3f0)" /><path d="M 974 110.5 L 985.25 110.5 L 1014.75 110.5 L 1026 110.5" stroke="#52606D" stroke-width="1.6" stroke-linecap="round" stroke-linejoin="round" marker-end="url(#arrow-2d6b23a3f0)" /><path d="M 634 324.5 L 652 324.5" stroke="#52606D" stroke-width="1.6" stroke-linecap="round" stroke-linejoin="round" marker-end="url(#arrow-2d6b23a3f0)" /><path d="M 808 324.5 L 826 324.5" stroke="#52606D" stroke-width="1.6" stroke-linecap="round" stroke-linejoin="round" marker-end="url(#arrow-2d6b23a3f0)" /></g><g id="edge-joins" /><g id="nodes"><g id="s3_raw"><rect x="62" y="74.5" width="156" height="72" rx="14" ry="14" fill="#000000" opacity="0.03" /><rect x="60.4" y="73.5" width="159.2" height="75.2" rx="15.6" ry="15.6" fill="#000000" opacity="0.03" /><rect x="58.8" y="72.5" width="162.4" height="78.4" rx="17.2" ry="17.2" fill="#000000" opacity="0.02" /><rect x="57.2" y="71.5" width="165.6" height="81.6" rx="18.8" ry="18.8" fill="#000000" opacity="0.02" /><rect x="55.6" y="70.5" width="168.8" height="84.8" rx="20.4" ry="20.4" fill="#000000" opacity="0.01" /><rect x="54" y="69.5" width="172" height="88" rx="22" ry="22" fill="#000000" opacity="0" /><rect x="62" y="74.5" width="156" height="72" rx="14" ry="14" fill="#F8F9FA" stroke="#495057" stroke-width="1.6" /><text x="140" y="102.15" fill="#111111" text-anchor="middle" font-family="'IBM Plex Sans', 'DejaVu Sans', sans-serif" font-size="15" font-weight="650">S3 Bucket</text><text x="140" y="124.86" fill="#111111" text-anchor="middle" font-family="'IBM Plex Sans', 'DejaVu Sans', sans-serif" font-size="11" font-weight="450" opacity="0.85">Raw Data Storage</text></g><g id="lambda_trigger"><rect x="236" y="74.5" width="156" height="72" rx="14" ry="14" fill="#000000" opacity="0.03" /><rect x="234.4" y="73.5" width="159.2" height="75.2" rx="15.6" ry="15.6" fill="#000000" opacity="0.03" /><rect x="232.8" y="72.5" width="162.4" height="78.4" rx="17.2" ry="17.2" fill="#000000" opacity="0.02" /><rect x="231.2" y="71.5" width="165.6" height="81.6" rx="18.8" ry="18.8" fill="#000000" opacity="0.02" /><rect x="229.6" y="70.5" width="168.8" height="84.8" rx="20.4" ry="20.4" fill="#000000" opacity="0.01" /><rect x="228" y="69.5" width="172" height="88" rx="22" ry="22" fill="#000000" opacity="0" /><rect x="236" y="74.5" width="156" height="72" rx="14" ry="14" fill="#FFF3E0" stroke="#495057" stroke-width="1.6" /><text x="314" y="102.15" fill="#111111" text-anchor="middle" font-family="'IBM Plex Sans', 'DejaVu Sans', sans-serif" font-size="15" font-weight="650">Lambda</text><text x="314" y="124.86" fill="#111111" text-anchor="middle" font-family="'IBM Plex Sans', 'DejaVu Sans', sans-serif" font-size="11" font-weight="450" opacity="0.85">Event Trigger</text></g><g id="pubsub"><rect x="470" y="74.5" width="156" height="72" rx="14" ry="14" fill="#000000" opacity="0.03" /><rect x="468.4" y="73.5" width="159.2" height="75.2" rx="15.6" ry="15.6" fill="#000000" opacity="0.03" /><rect x="466.8" y="72.5" width="162.4" height="78.4" rx="17.2" ry="17.2" fill="#000000" opacity="0.02" /><rect x="465.2" y="71.5" width="165.6" height="81.6" rx="18.8" ry="18.8" fill="#000000" opacity="0.02" /><rect x="463.6" y="70.5" width="168.8" height="84.8" rx="20.4" ry="20.4" fill="#000000" opacity="0.01" /><rect x="462" y="69.5" width="172" height="88" rx="22" ry="22" fill="#000000" opacity="0" /><rect x="470" y="74.5" width="156" height="72" rx="14" ry="14" fill="#E8F5E9" stroke="#495057" stroke-width="1.6" /><text x="548" y="102.15" fill="#111111" text-anchor="middle" font-family="'IBM Plex Sans', 'DejaVu Sans', sans-serif" font-size="15" font-weight="650">Cloud Pub/Sub</text><text x="548" y="124.86" fill="#111111" text-anchor="middle" font-family="'IBM Plex Sans', 'DejaVu Sans', sans-serif" font-size="11" font-weight="450" opacity="0.85">Message Queue</text></g><g id="dataflow"><rect x="644" y="74.5" width="156" height="72" rx="14" ry="14" fill="#000000" opacity="0.03" /><rect x="642.4" y="73.5" width="159.2" height="75.2" rx="15.6" ry="15.6" fill="#000000" opacity="0.03" /><rect x="640.8" y="72.5" width="162.4" height="78.4" rx="17.2" ry="17.2" fill="#000000" opacity="0.02" /><rect x="639.2" y="71.5" width="165.6" height="81.6" rx="18.8" ry="18.8" fill="#000000" opacity="0.02" /><rect x="637.6" y="70.5" width="168.8" height="84.8" rx="20.4" ry="20.4" fill="#000000" opacity="0.01" /><rect x="636" y="69.5" width="172" height="88" rx="22" ry="22" fill="#000000" opacity="0" /><rect x="644" y="74.5" width="156" height="72" rx="14" ry="14" fill="#E3F2FD" stroke="#495057" stroke-width="1.6" /><text x="722" y="102.15" fill="#111111" text-anchor="middle" font-family="'IBM Plex Sans', 'DejaVu Sans', sans-serif" font-size="15" font-weight="650">Dataflow</text><text x="722" y="124.86" fill="#111111" text-anchor="middle" font-family="'IBM Plex Sans', 'DejaVu Sans', sans-serif" font-size="11" font-weight="450" opacity="0.85">Stream Processing</text></g><g id="bigquery"><rect x="818" y="74.5" width="156" height="72" rx="14" ry="14" fill="#000000" opacity="0.03" /><rect x="816.4" y="73.5" width="159.2" height="75.2" rx="15.6" ry="15.6" fill="#000000" opacity="0.03" /><rect x="814.8" y="72.5" width="162.4" height="78.4" rx="17.2" ry="17.2" fill="#000000" opacity="0.02" /><rect x="813.2" y="71.5" width="165.6" height="81.6" rx="18.8" ry="18.8" fill="#000000" opacity="0.02" /><rect x="811.6" y="70.5" width="168.8" height="84.8" rx="20.4" ry="20.4" fill="#000000" opacity="0.01" /><rect x="810" y="69.5" width="172" height="88" rx="22" ry="22" fill="#000000" opacity="0" /><rect x="818" y="74.5" width="156" height="72" rx="14" ry="14" fill="#FCE4EC" stroke="#495057" stroke-width="1.6" /><text x="896" y="102.15" fill="#111111" text-anchor="middle" font-family="'IBM Plex Sans', 'DejaVu Sans', sans-serif" font-size="15" font-weight="650">BigQuery</text><text x="896" y="124.86" fill="#111111" text-anchor="middle" font-family="'IBM Plex Sans', 'DejaVu Sans', sans-serif" font-size="11" font-weight="450" opacity="0.85">Data Warehouse</text></g><g id="bi_tool"><rect x="1026" y="74.5" width="162" height="72" rx="14" ry="14" fill="#000000" opacity="0.03" /><rect x="1024.4" y="73.5" width="165.2" height="75.2" rx="15.6" ry="15.6" fill="#000000" opacity="0.03" /><rect x="1022.8" y="72.5" width="168.4" height="78.4" rx="17.2" ry="17.2" fill="#000000" opacity="0.02" /><rect x="1021.2" y="71.5" width="171.6" height="81.6" rx="18.8" ry="18.8" fill="#000000" opacity="0.02" /><rect x="1019.6" y="70.5" width="174.8" height="84.8" rx="20.4" ry="20.4" fill="#000000" opacity="0.01" /><rect x="1018" y="69.5" width="178" height="88" rx="22" ry="22" fill="#000000" opacity="0" /><rect x="1026" y="74.5" width="162" height="72" rx="14" ry="14" fill="#F8F9FA" stroke="#495057" stroke-width="1.6" /><text x="1107" y="102.15" fill="#111111" text-anchor="middle" font-family="'IBM Plex Sans', 'DejaVu Sans', sans-serif" font-size="15" font-weight="650">Tableau/Looker</text><text x="1107" y="124.86" fill="#111111" text-anchor="middle" font-family="'IBM Plex Sans', 'DejaVu Sans', sans-serif" font-size="11" font-weight="450" opacity="0.85">Analytics Dashboard</text></g><g id="detail-panel-dataflow_detail-clean"><rect x="462" y="288.5" width="172" height="72" rx="14" ry="14" fill="#000000" opacity="0.03" /><rect x="460.4" y="287.5" width="175.2" height="75.2" rx="15.6" ry="15.6" fill="#000000" opacity="0.03" /><rect x="458.8" y="286.5" width="178.4" height="78.4" rx="17.2" ry="17.2" fill="#000000" opacity="0.02" /><rect x="457.2" y="285.5" width="181.6" height="81.6" rx="18.8" ry="18.8" fill="#000000" opacity="0.02" /><rect x="455.6" y="284.5" width="184.8" height="84.8" rx="20.4" ry="20.4" fill="#000000" opacity="0.01" /><rect x="454" y="283.5" width="188" height="88" rx="22" ry="22" fill="#000000" opacity="0" /><rect x="462" y="288.5" width="172" height="72" rx="14" ry="14" fill="#F8F9FA" stroke="#495057" stroke-width="1.6" /><text x="548" y="316.15" fill="#111111" text-anchor="middle" font-family="'IBM Plex Sans', 'DejaVu Sans', sans-serif" font-size="15" font-weight="650">Cleaning</text><text x="548" y="338.86" fill="#111111" text-anchor="middle" font-family="'IBM Plex Sans', 'DejaVu Sans', sans-serif" font-size="11" font-weight="450" opacity="0.85">Null check &amp; Type cast</text></g><g id="detail-panel-dataflow_detail-transform"><rect x="652" y="288.5" width="156" height="72" rx="14" ry="14" fill="#000000" opacity="0.03" /><rect x="650.4" y="287.5" width="159.2" height="75.2" rx="15.6" ry="15.6" fill="#000000" opacity="0.03" /><rect x="648.8" y="286.5" width="162.4" height="78.4" rx="17.2" ry="17.2" fill="#000000" opacity="0.02" /><rect x="647.2" y="285.5" width="165.6" height="81.6" rx="18.8" ry="18.8" fill="#000000" opacity="0.02" /><rect x="645.6" y="284.5" width="168.8" height="84.8" rx="20.4" ry="20.4" fill="#000000" opacity="0.01" /><rect x="644" y="283.5" width="172" height="88" rx="22" ry="22" fill="#000000" opacity="0" /><rect x="652" y="288.5" width="156" height="72" rx="14" ry="14" fill="#FFF3E0" stroke="#495057" stroke-width="1.6" /><text x="730" y="316.15" fill="#111111" text-anchor="middle" font-family="'IBM Plex Sans', 'DejaVu Sans', sans-serif" font-size="15" font-weight="650">Transform</text><text x="730" y="338.86" fill="#111111" text-anchor="middle" font-family="'IBM Plex Sans', 'DejaVu Sans', sans-serif" font-size="11" font-weight="450" opacity="0.85">Business Logic</text></g><g id="detail-panel-dataflow_detail-enrich"><rect x="826" y="288.5" width="156" height="72" rx="14" ry="14" fill="#000000" opacity="0.03" /><rect x="824.4" y="287.5" width="159.2" height="75.2" rx="15.6" ry="15.6" fill="#000000" opacity="0.03" /><rect x="822.8" y="286.5" width="162.4" height="78.4" rx="17.2" ry="17.2" fill="#000000" opacity="0.02" /><rect x="821.2" y="285.5" width="165.6" height="81.6" rx="18.8" ry="18.8" fill="#000000" opacity="0.02" /><rect x="819.6" y="284.5" width="168.8" height="84.8" rx="20.4" ry="20.4" fill="#000000" opacity="0.01" /><rect x="818" y="283.5" width="172" height="88" rx="22" ry="22" fill="#000000" opacity="0" /><rect x="826" y="288.5" width="156" height="72" rx="14" ry="14" fill="#E8F5E9" stroke="#495057" stroke-width="1.6" /><text x="904" y="316.15" fill="#111111" text-anchor="middle" font-family="'IBM Plex Sans', 'DejaVu Sans', sans-serif" font-size="15" font-weight="650">Enrichment</text><text x="904" y="338.86" fill="#111111" text-anchor="middle" font-family="'IBM Plex Sans', 'DejaVu Sans', sans-serif" font-size="11" font-weight="450" opacity="0.85">CRM Data Join</text></g></g></svg>