<svg xmlns="http://www.w3.org/2000/svg" width="896" height="298" viewBox="0 0 896 298" fill="none" font-family="Inter, 'Geist Sans', 'Segoe UI', Roboto, Helvetica, Arial, sans-serif"><defs><filter id="drop-shadow" x="-20%" y="-20%" width="140%" height="140%"><feMerge><feMergeNode in="shadow1" /><feMergeNode in="shadow2" /><feMergeNode in="SourceGraphic" /></feMerge><feGaussianBlur in="SourceAlpha" stdDeviation="4" result="blur1" /><feOffset dx="0" dy="3" in="blur1" result="offsetblur1" /><feComponentTransfer in="offsetblur1" result="shadow1"><feFuncA type="linear" slope="0.18" /></feComponentTransfer><feGaussianBlur in="SourceAlpha" stdDeviation="1.2" result="blur2" /><feOffset dx="0" dy="0.8" in="blur2" result="offsetblur2" /><feComponentTransfer in="offsetblur2" result="shadow2"><feFuncA type="linear" slope="0.36" /></feComponentTransfer></filter><marker id="arrow-28792373bc" viewBox="0 0 10.02 10.02" refX="9.02" refY="5.01" markerWidth="6" markerHeight="6" orient="auto" markerUnits="userSpaceOnUse"><path d="M 0 1.5 L 9.02 5.01 L 0 8.52 Z" fill="#94A3B8" opacity="0.9" /></marker><marker id="arrow-e3ff5b724f" viewBox="0 0 10.02 10.02" refX="9.02" refY="5.01" markerWidth="6" markerHeight="6" orient="auto" markerUnits="userSpaceOnUse"><path d="M 0 1.5 L 9.02 5.01 L 0 8.52 Z" fill="#C0504D" opacity="0.9" /></marker></defs><rect x="0" y="0" width="896" height="298" fill="#0F172A" /><g id="groups"><rect x="40" y="40" width="600" height="182" rx="16" ry="16" stroke="#334155" stroke-width="1" stroke-dasharray="6 4" fill="#0F172A" fill-opacity="0.4" /><line x1="49.6" y1="40" x2="100" y2="40" stroke="#334155" stroke-width="2.5" stroke-linecap="round" /><text x="64" y="57.6" fill="#CBD5E1" font-family="Inter, 'Geist Sans', 'Segoe UI', Roboto, Helvetica, Arial, sans-serif" font-size="12" font-weight="600">Execution</text></g><g id="edges"><path d="M 224 158 L 244 158" stroke="#94A3B8" stroke-width="1.5" stroke-linecap="round" stroke-linejoin="round" marker-end="url(#arrow-28792373bc)" /><path d="M 404 158 L 414 158 L 424 158" stroke="#94A3B8" stroke-width="1.5" stroke-linecap="round" stroke-linejoin="round" marker-end="url(#arrow-28792373bc)" stroke-dasharray="8 6" /><path d="M 584 158 L 612 158 L 612 93 L 234 93 L 234 158 L 244 158" stroke="#C0504D" stroke-width="1.5" stroke-linecap="round" stroke-linejoin="round" marker-end="url(#arrow-e3ff5b724f)" /><path d="M 324 198 L 324 252 L 776 252 L 776 198" stroke="#94A3B8" stroke-width="1.5" stroke-linecap="round" stroke-linejoin="round" marker-end="url(#arrow-28792373bc)" /></g><g id="nodes"><g id="start"><rect x="64" y="118" width="160" height="80" rx="12" ry="12" fill="#000000" opacity="0.12" /><rect x="63.2" y="117.6" width="161.6" height="81.6" rx="12.8" ry="12.8" fill="#000000" opacity="0.1" /><rect x="62.4" y="117.2" width="163.2" height="83.2" rx="13.6" ry="13.6" fill="#000000" opacity="0.09" /><rect x="61.6" y="116.8" width="164.8" height="84.8" rx="14.4" ry="14.4" fill="#000000" opacity="0.06" /><rect x="60.8" y="116.4" width="166.4" height="86.4" rx="15.2" ry="15.2" fill="#000000" opacity="0.03" /><rect x="60" y="116" width="168" height="88" rx="16" ry="16" fill="#000000" opacity="0.01" /><rect x="64" y="118" width="160" height="80" rx="12" ry="12" fill="#F87171" stroke="#475569" stroke-width="1.5" /><text x="144" y="160.16" fill="#F8FAFC" text-anchor="middle" font-family="Inter, 'Geist Sans', 'Segoe UI', Roboto, Helvetica, Arial, sans-serif" font-size="16" font-weight="600">Start</text></g><g id="fetch"><rect x="244" y="118" width="160" height="80" rx="12" ry="12" fill="#000000" opacity="0.12" /><rect x="243.2" y="117.6" width="161.6" height="81.6" rx="12.8" ry="12.8" fill="#000000" opacity="0.1" /><rect x="242.4" y="117.2" width="163.2" height="83.2" rx="13.6" ry="13.6" fill="#000000" opacity="0.09" /><rect x="241.6" y="116.8" width="164.8" height="84.8" rx="14.4" ry="14.4" fill="#000000" opacity="0.06" /><rect x="240.8" y="116.4" width="166.4" height="86.4" rx="15.2" ry="15.2" fill="#000000" opacity="0.03" /><rect x="240" y="116" width="168" height="88" rx="16" ry="16" fill="#000000" opacity="0.01" /><rect x="244" y="118" width="160" height="80" rx="12" ry="12" fill="#FACC15" stroke="#475569" stroke-width="1.5" /><text x="324" y="160.16" fill="#F8FAFC" text-anchor="middle" font-family="Inter, 'Geist Sans', 'Segoe UI', Roboto, Helvetica, Arial, sans-serif" font-size="16" font-weight="600">Fetch Data</text></g><g id="retry"><rect x="424" y="118" width="160" height="80" rx="12" ry="12" fill="#000000" opacity="0.12" /><rect x="423.2" y="117.6" width="161.6" height="81.6" rx="12.8" ry="12.8" fill="#000000" opacity="0.1" /><rect x="422.4" y="117.2" width="163.2" height="83.2" rx="13.6" ry="13.6" fill="#000000" opacity="0.09" /><rect x="421.6" y="116.8" width="164.8" height="84.8" rx="14.4" ry="14.4" fill="#000000" opacity="0.06" /><rect x="420.8" y="116.4" width="166.4" height="86.4" rx="15.2" ry="15.2" fill="#000000" opacity="0.03" /><rect x="420" y="116" width="168" height="88" rx="16" ry="16" fill="#000000" opacity="0.01" /><rect x="424" y="118" width="160" height="80" rx="12" ry="12" fill="#FDEFEF" stroke="#C0504D" stroke-width="1.5" /><text x="504" y="148.66" fill="#F8FAFC" text-anchor="middle" font-family="Inter, 'Geist Sans', 'Segoe UI', Roboto, Helvetica, Arial, sans-serif" font-size="16" font-weight="600">Retry</text><text x="504" y="173.62" fill="#F8FAFC" text-anchor="middle" font-family="Inter, 'Geist Sans', 'Segoe UI', Roboto, Helvetica, Arial, sans-serif" font-size="12" font-weight="400" opacity="0.85">Wait 5s</text></g><g id="done"><rect x="696" y="118" width="160" height="80" rx="12" ry="12" fill="#000000" opacity="0.12" /><rect x="695.2" y="117.6" width="161.6" height="81.6" rx="12.8" ry="12.8" fill="#000000" opacity="0.1" /><rect x="694.4" y="117.2" width="163.2" height="83.2" rx="13.6" ry="13.6" fill="#000000" opacity="0.09" /><rect x="693.6" y="116.8" width="164.8" height="84.8" rx="14.4" ry="14.4" fill="#000000" opacity="0.06" /><rect x="692.8" y="116.4" width="166.4" height="86.4" rx="15.2" ry="15.2" fill="#000000" opacity="0.03" /><rect x="692" y="116" width="168" height="88" rx="16" ry="16" fill="#000000" opacity="0.01" /><rect x="696" y="118" width="160" height="80" rx="12" ry="12" fill="#2DD4BF" stroke="#475569" stroke-width="1.5" /><text x="776" y="160.16" fill="#F8FAFC" text-anchor="middle" font-family="Inter, 'Geist Sans', 'Segoe UI', Roboto, Helvetica, Arial, sans-serif" font-size="16" font-weight="600">Done</text></g></g></svg>