<svg xmlns="http://www.w3.org/2000/svg" width="896" height="298.5" viewBox="0 0 896 298.5" fill="none" font-family="Inter, -apple-system, 'SF Pro Display', system-ui, sans-serif"><defs><filter id="drop-shadow" x="-20%" y="-20%" width="140%" height="140%"><feMerge><feMergeNode in="shadow1" /><feMergeNode in="shadow2" /><feMergeNode in="SourceGraphic" /></feMerge><feGaussianBlur in="SourceAlpha" stdDeviation="12" result="blur1" /><feOffset dx="0" dy="9" in="blur1" result="offsetblur1" /><feComponentTransfer in="offsetblur1" result="shadow1"><feFuncA type="linear" slope="0.05" /></feComponentTransfer><feGaussianBlur in="SourceAlpha" stdDeviation="3.6" result="blur2" /><feOffset dx="0" dy="2.4" in="blur2" result="offsetblur2" /><feComponentTransfer in="offsetblur2" result="shadow2"><feFuncA type="linear" slope="0.1" /></feComponentTransfer></filter><marker id="arrow-28792373bc" viewBox="0 0 10.02 10.02" refX="9.02" refY="5.01" markerWidth="6" markerHeight="6" orient="auto" markerUnits="userSpaceOnUse"><path d="M 0 1.5 L 9.02 5.01 L 0 8.52 Z" fill="#94A3B8" opacity="0.9" /></marker><marker id="arrow-e3ff5b724f" viewBox="0 0 10.02 10.02" refX="9.02" refY="5.01" markerWidth="6" markerHeight="6" orient="auto" markerUnits="userSpaceOnUse"><path d="M 0 1.5 L 9.02 5.01 L 0 8.52 Z" fill="#C0504D" opacity="0.9" /></marker></defs><rect x="0" y="0" width="896" height="298.5" fill="#FFFFFF" /><g id="groups"><rect x="40" y="40" width="600" height="182.5" rx="20" ry="20" stroke="#E2E8F0" stroke-width="1" stroke-dasharray="6 4" fill="#F8FAFC" fill-opacity="1" /><text x="64" y="58.6" fill="#64748B" font-family="Inter, -apple-system, 'SF Pro Display', system-ui, sans-serif" font-size="13" font-weight="700">Execution</text></g><g id="edges"><path d="M 224 158.5 L 244 158.5" stroke="#94A3B8" stroke-width="1.5" stroke-linecap="round" stroke-linejoin="round" marker-end="url(#arrow-28792373bc)" /><path d="M 404 158.5 L 414 158.5 L 424 158.5" stroke="#94A3B8" stroke-width="1.5" stroke-linecap="round" stroke-linejoin="round" marker-end="url(#arrow-28792373bc)" stroke-dasharray="8 6" /><path d="M 584 158.5 L 612 158.5 L 612 93.75 L 234 93.75 L 234 158.5 L 244 158.5" stroke="#C0504D" stroke-width="1.5" stroke-linecap="round" stroke-linejoin="round" marker-end="url(#arrow-e3ff5b724f)" /><path d="M 324 198.5 L 324 252.5 L 776 252.5 L 776 198.5" stroke="#94A3B8" stroke-width="1.5" stroke-linecap="round" stroke-linejoin="round" marker-end="url(#arrow-28792373bc)" /></g><g id="nodes"><g id="start"><rect x="64" y="118.5" width="160" height="80" rx="12" ry="12" fill="#000000" opacity="0.03" /><rect x="61.6" y="117.3" width="164.8" height="84.8" rx="14.4" ry="14.4" fill="#000000" opacity="0.03" /><rect x="59.2" y="116.1" width="169.6" height="89.6" rx="16.8" ry="16.8" fill="#000000" opacity="0.02" /><rect x="56.8" y="114.9" width="174.4" height="94.4" rx="19.2" ry="19.2" fill="#000000" opacity="0.02" /><rect x="54.4" y="113.7" width="179.2" height="99.2" rx="21.6" ry="21.6" fill="#000000" opacity="0.01" /><rect x="52" y="112.5" width="184" height="104" rx="24" ry="24" fill="#000000" opacity="0" /><rect x="64" y="118.5" width="160" height="80" rx="12" ry="12" fill="#FFFFFF" stroke="#CBD5E1" stroke-width="1.5" /><text x="144" y="160.66" fill="#0F172A" text-anchor="middle" font-family="Inter, -apple-system, 'SF Pro Display', system-ui, sans-serif" font-size="16" font-weight="700">Start</text></g><g id="fetch"><rect x="244" y="118.5" width="160" height="80" rx="12" ry="12" fill="#000000" opacity="0.03" /><rect x="241.6" y="117.3" width="164.8" height="84.8" rx="14.4" ry="14.4" fill="#000000" opacity="0.03" /><rect x="239.2" y="116.1" width="169.6" height="89.6" rx="16.8" ry="16.8" fill="#000000" opacity="0.02" /><rect x="236.8" y="114.9" width="174.4" height="94.4" rx="19.2" ry="19.2" fill="#000000" opacity="0.02" /><rect x="234.4" y="113.7" width="179.2" height="99.2" rx="21.6" ry="21.6" fill="#000000" opacity="0.01" /><rect x="232" y="112.5" width="184" height="104" rx="24" ry="24" fill="#000000" opacity="0" /><rect x="244" y="118.5" width="160" height="80" rx="12" ry="12" fill="#FFFFFF" stroke="#CBD5E1" stroke-width="1.5" /><text x="324" y="160.66" fill="#0F172A" text-anchor="middle" font-family="Inter, -apple-system, 'SF Pro Display', system-ui, sans-serif" font-size="16" font-weight="700">Fetch Data</text></g><g id="retry"><rect x="424" y="118.5" width="160" height="80" rx="12" ry="12" fill="#000000" opacity="0.03" /><rect x="421.6" y="117.3" width="164.8" height="84.8" rx="14.4" ry="14.4" fill="#000000" opacity="0.03" /><rect x="419.2" y="116.1" width="169.6" height="89.6" rx="16.8" ry="16.8" fill="#000000" opacity="0.02" /><rect x="416.8" y="114.9" width="174.4" height="94.4" rx="19.2" ry="19.2" fill="#000000" opacity="0.02" /><rect x="414.4" y="113.7" width="179.2" height="99.2" rx="21.6" ry="21.6" fill="#000000" opacity="0.01" /><rect x="412" y="112.5" width="184" height="104" rx="24" ry="24" fill="#000000" opacity="0" /><rect x="424" y="118.5" width="160" height="80" rx="12" ry="12" fill="#FDEFEF" stroke="#C0504D" stroke-width="1.5" /><text x="504" y="148.53" fill="#0F172A" text-anchor="middle" font-family="Inter, -apple-system, 'SF Pro Display', system-ui, sans-serif" font-size="16" font-weight="700">Retry</text><text x="504" y="174.25" fill="#0F172A" text-anchor="middle" font-family="Inter, -apple-system, 'SF Pro Display', system-ui, sans-serif" font-size="13" font-weight="500" opacity="0.85">Wait 5s</text></g><g id="done"><rect x="696" y="118.5" width="160" height="80" rx="12" ry="12" fill="#000000" opacity="0.03" /><rect x="693.6" y="117.3" width="164.8" height="84.8" rx="14.4" ry="14.4" fill="#000000" opacity="0.03" /><rect x="691.2" y="116.1" width="169.6" height="89.6" rx="16.8" ry="16.8" fill="#000000" opacity="0.02" /><rect x="688.8" y="114.9" width="174.4" height="94.4" rx="19.2" ry="19.2" fill="#000000" opacity="0.02" /><rect x="686.4" y="113.7" width="179.2" height="99.2" rx="21.6" ry="21.6" fill="#000000" opacity="0.01" /><rect x="684" y="112.5" width="184" height="104" rx="24" ry="24" fill="#000000" opacity="0" /><rect x="696" y="118.5" width="160" height="80" rx="12" ry="12" fill="#FFFFFF" stroke="#CBD5E1" stroke-width="1.5" /><text x="776" y="160.66" fill="#0F172A" text-anchor="middle" font-family="Inter, -apple-system, 'SF Pro Display', system-ui, sans-serif" font-size="16" font-weight="700">Done</text></g></g></svg>