<svg xmlns="http://www.w3.org/2000/svg" width="982.3" height="300" viewBox="0 0 982.3 300" fill="none" font-family="'DejaVu Sans', 'Trebuchet MS', 'Segoe UI', sans-serif"><defs><filter id="drop-shadow" x="-20%" y="-20%" width="140%" height="140%"><feMerge><feMergeNode in="shadow1" /><feMergeNode in="shadow2" /><feMergeNode in="SourceGraphic" /></feMerge><feGaussianBlur in="SourceAlpha" stdDeviation="8" result="blur1" /><feOffset dx="0" dy="6" in="blur1" result="offsetblur1" /><feComponentTransfer in="offsetblur1" result="shadow1"><feFuncA type="linear" slope="0.04" /></feComponentTransfer><feGaussianBlur in="SourceAlpha" stdDeviation="2.4" result="blur2" /><feOffset dx="0" dy="1.6" in="blur2" result="offsetblur2" /><feComponentTransfer in="offsetblur2" result="shadow2"><feFuncA type="linear" slope="0.08" /></feComponentTransfer></filter><marker id="arrow-c3f2b4e26b" viewBox="0 0 13.36 13.36" refX="12.02" refY="6.68" markerWidth="8" markerHeight="8" orient="auto" markerUnits="userSpaceOnUse"><path d="M 0 2 L 12.02 6.68 L 0 11.36 Z" fill="#8FB7CC" opacity="0.9" /></marker><marker id="arrow-e3ff5b724f" viewBox="0 0 13.36 13.36" refX="12.02" refY="6.68" markerWidth="8" markerHeight="8" orient="auto" markerUnits="userSpaceOnUse"><path d="M 0 2 L 12.02 6.68 L 0 11.36 Z" fill="#C0504D" opacity="0.9" /></marker></defs><rect x="0" y="0" width="982.3" height="300" fill="#FFFFFF" /><g id="groups"><rect x="40" y="40" width="669.15" height="182" rx="32" ry="32" stroke="#D8A7B5" stroke-width="1.1" stroke-dasharray="6.6 4.4" fill="#FFFFFF" fill-opacity="0.94" /><text x="64" y="57.6" fill="#8A7188" font-family="'DejaVu Sans', 'Trebuchet MS', 'Segoe UI', sans-serif" font-size="12" font-weight="650">Execution</text></g><g id="edges"><path d="M 224 158 L 245 158" stroke="#8FB7CC" stroke-width="1.25" stroke-linecap="round" stroke-linejoin="round" marker-end="url(#arrow-c3f2b4e26b)" /><path d="M 406 158 L 416.5 158 L 427 158" stroke="#8FB7CC" stroke-width="1.25" stroke-linecap="round" stroke-linejoin="round" marker-end="url(#arrow-c3f2b4e26b)" stroke-dasharray="8 6" /><path d="M 636 158 L 672.58 158 L 672.58 93 L 234.5 93 L 234.5 158 L 245 158" stroke="#C0504D" stroke-width="1.25" stroke-linecap="round" stroke-linejoin="round" marker-end="url(#arrow-e3ff5b724f)" /><path d="M 325.5 198 L 325.5 252 L 862.3 252 L 862.3 198" stroke="#8FB7CC" stroke-width="1.25" stroke-linecap="round" stroke-linejoin="round" marker-end="url(#arrow-c3f2b4e26b)" /></g><g id="edge-joins" /><g id="nodes"><g id="start"><rect x="64" y="118" width="160" height="80" rx="28" ry="28" fill="#000000" opacity="0.03" /><rect x="62.4" y="117.2" width="163.2" height="83.2" rx="29.6" ry="29.6" fill="#000000" opacity="0.02" /><rect x="60.8" y="116.4" width="166.4" height="86.4" rx="31.2" ry="31.2" fill="#000000" opacity="0.02" /><rect x="59.2" y="115.6" width="169.6" height="89.6" rx="32.8" ry="32.8" fill="#000000" opacity="0.01" /><rect x="57.6" y="114.8" width="172.8" height="92.8" rx="34.4" ry="34.4" fill="#000000" opacity="0.01" /><rect x="56" y="114" width="176" height="96" rx="36" ry="36" fill="#000000" opacity="0" /><rect x="64" y="118" width="160" height="80" rx="28" ry="28" fill="#A8E6CF" stroke="#D8A7B5" stroke-width="1.25" /><text x="144" y="148.66" fill="#111111" text-anchor="middle" font-family="'DejaVu Sans', 'Trebuchet MS', 'Segoe UI', sans-serif" font-size="16" font-weight="650">Start</text><text x="144" y="173.62" fill="#111111" text-anchor="middle" font-family="'DejaVu Sans', 'Trebuchet MS', 'Segoe UI', sans-serif" font-size="12" font-weight="500" opacity="0.85">Receive request</text></g><g id="fetch"><rect x="245" y="118" width="161" height="80" rx="28" ry="28" fill="#000000" opacity="0.03" /><rect x="243.4" y="117.2" width="164.2" height="83.2" rx="29.6" ry="29.6" fill="#000000" opacity="0.02" /><rect x="241.8" y="116.4" width="167.4" height="86.4" rx="31.2" ry="31.2" fill="#000000" opacity="0.02" /><rect x="240.2" y="115.6" width="170.6" height="89.6" rx="32.8" ry="32.8" fill="#000000" opacity="0.01" /><rect x="238.6" y="114.8" width="173.8" height="92.8" rx="34.4" ry="34.4" fill="#000000" opacity="0.01" /><rect x="237" y="114" width="177" height="96" rx="36" ry="36" fill="#000000" opacity="0" /><rect x="245" y="118" width="161" height="80" rx="28" ry="28" fill="#DCEDC1" stroke="#D8A7B5" stroke-width="1.25" /><text x="325.5" y="148.66" fill="#111111" text-anchor="middle" font-family="'DejaVu Sans', 'Trebuchet MS', 'Segoe UI', sans-serif" font-size="16" font-weight="650">Fetch Data</text><text x="325.5" y="173.62" fill="#111111" text-anchor="middle" font-family="'DejaVu Sans', 'Trebuchet MS', 'Segoe UI', sans-serif" font-size="12" font-weight="500" opacity="0.85">Load source tables</text></g><g id="retry"><rect x="427" y="118" width="209" height="80" rx="28" ry="28" fill="#000000" opacity="0.03" /><rect x="425.4" y="117.2" width="212.2" height="83.2" rx="29.6" ry="29.6" fill="#000000" opacity="0.02" /><rect x="423.8" y="116.4" width="215.4" height="86.4" rx="31.2" ry="31.2" fill="#000000" opacity="0.02" /><rect x="422.2" y="115.6" width="218.6" height="89.6" rx="32.8" ry="32.8" fill="#000000" opacity="0.01" /><rect x="420.6" y="114.8" width="221.8" height="92.8" rx="34.4" ry="34.4" fill="#000000" opacity="0.01" /><rect x="419" y="114" width="225" height="96" rx="36" ry="36" fill="#000000" opacity="0" /><rect x="427" y="118" width="209" height="80" rx="28" ry="28" fill="#FFF2CC" stroke="#D8A7B5" stroke-width="1.25" /><text x="531.5" y="148.66" fill="#111111" text-anchor="middle" font-family="'DejaVu Sans', 'Trebuchet MS', 'Segoe UI', sans-serif" font-size="16" font-weight="650">Retry</text><text x="531.5" y="173.62" fill="#111111" text-anchor="middle" font-family="'DejaVu Sans', 'Trebuchet MS', 'Segoe UI', sans-serif" font-size="12" font-weight="500" opacity="0.85">Loop on transient failure</text></g><g id="done"><rect x="782.3" y="118" width="160" height="80" rx="28" ry="28" fill="#000000" opacity="0.03" /><rect x="780.7" y="117.2" width="163.2" height="83.2" rx="29.6" ry="29.6" fill="#000000" opacity="0.02" /><rect x="779.1" y="116.4" width="166.4" height="86.4" rx="31.2" ry="31.2" fill="#000000" opacity="0.02" /><rect x="777.5" y="115.6" width="169.6" height="89.6" rx="32.8" ry="32.8" fill="#000000" opacity="0.01" /><rect x="775.9" y="114.8" width="172.8" height="92.8" rx="34.4" ry="34.4" fill="#000000" opacity="0.01" /><rect x="774.3" y="114" width="176" height="96" rx="36" ry="36" fill="#000000" opacity="0" /><rect x="782.3" y="118" width="160" height="80" rx="28" ry="28" fill="#D9EAD3" stroke="#D8A7B5" stroke-width="1.25" /><text x="862.3" y="148.66" fill="#111111" text-anchor="middle" font-family="'DejaVu Sans', 'Trebuchet MS', 'Segoe UI', sans-serif" font-size="16" font-weight="650">Done</text><text x="862.3" y="173.62" fill="#111111" text-anchor="middle" font-family="'DejaVu Sans', 'Trebuchet MS', 'Segoe UI', sans-serif" font-size="12" font-weight="500" opacity="0.85">Return result</text></g></g></svg>