<svg xmlns="http://www.w3.org/2000/svg" width="926.7" height="281.5" viewBox="0 0 926.7 281.5" fill="none" font-family="'IBM Plex Sans', 'DejaVu Sans', sans-serif"><defs><filter id="drop-shadow" x="-20%" y="-20%" width="140%" height="140%"><feMerge><feMergeNode in="shadow1" /><feMergeNode in="shadow2" /><feMergeNode in="SourceGraphic" /></feMerge><feGaussianBlur in="SourceAlpha" stdDeviation="8" result="blur1" /><feOffset dx="0" dy="4.5" in="blur1" result="offsetblur1" /><feComponentTransfer in="offsetblur1" result="shadow1"><feFuncA type="linear" slope="0.05" /></feComponentTransfer><feGaussianBlur in="SourceAlpha" stdDeviation="2.4" result="blur2" /><feOffset dx="0" dy="1.2" in="blur2" result="offsetblur2" /><feComponentTransfer in="offsetblur2" result="shadow2"><feFuncA type="linear" slope="0.1" /></feComponentTransfer></filter><marker id="arrow-2d6b23a3f0" viewBox="0 0 15.03 15.03" refX="13.53" refY="7.51" markerWidth="9" markerHeight="9" orient="auto" markerUnits="userSpaceOnUse"><path d="M 0 2.25 L 13.53 7.51 L 0 12.78 Z" fill="#52606D" opacity="0.9" /></marker><marker id="arrow-e3ff5b724f" viewBox="0 0 15.03 15.03" refX="13.53" refY="7.51" markerWidth="9" markerHeight="9" orient="auto" markerUnits="userSpaceOnUse"><path d="M 0 2.25 L 13.53 7.51 L 0 12.78 Z" fill="#C0504D" opacity="0.9" /></marker></defs><rect x="0" y="0" width="926.7" height="281.5" fill="#FFFFFF" /><g id="groups"><rect x="36" y="36" width="631.85" height="172.5" rx="18" ry="18" stroke="#7B8794" stroke-width="1.2" stroke-dasharray="7.2 4.8" fill="#EFF3F6" fill-opacity="0.16" /><text x="62" y="52.2" fill="#1F2933" font-family="'IBM Plex Sans', 'DejaVu Sans', sans-serif" font-size="11" font-weight="650">Execution</text></g><g id="edges"><path d="M 218 146.5 L 236 146.5" stroke="#52606D" stroke-width="1.6" stroke-linecap="round" stroke-linejoin="round" marker-end="url(#arrow-2d6b23a3f0)" /><path d="M 392 146.5 L 410 146.5" stroke="#52606D" stroke-width="1.6" stroke-linecap="round" stroke-linejoin="round" marker-end="url(#arrow-2d6b23a3f0)" stroke-dasharray="8 6.4" /><path d="M 601 146.5 L 634.42 146.5 L 634.42 85.75 L 227 85.75 L 227 139.3 L 236 139.3" stroke="#C0504D" stroke-width="1.6" stroke-linecap="round" stroke-linejoin="round" marker-end="url(#arrow-e3ff5b724f)" /><path d="M 314 182.5 L 314 236.5 L 812.7 236.5 L 812.7 182.5" stroke="#52606D" stroke-width="1.6" stroke-linecap="round" stroke-linejoin="round" marker-end="url(#arrow-2d6b23a3f0)" /></g><g id="edge-joins" /><g id="nodes"><g id="start"><rect x="62" y="110.5" width="156" height="72" rx="14" ry="14" fill="#000000" opacity="0.03" /><rect x="60.4" y="109.5" width="159.2" height="75.2" rx="15.6" ry="15.6" fill="#000000" opacity="0.03" /><rect x="58.8" y="108.5" width="162.4" height="78.4" rx="17.2" ry="17.2" fill="#000000" opacity="0.02" /><rect x="57.2" y="107.5" width="165.6" height="81.6" rx="18.8" ry="18.8" fill="#000000" opacity="0.02" /><rect x="55.6" y="106.5" width="168.8" height="84.8" rx="20.4" ry="20.4" fill="#000000" opacity="0.01" /><rect x="54" y="105.5" width="172" height="88" rx="22" ry="22" fill="#000000" opacity="0" /><rect x="62" y="110.5" width="156" height="72" rx="14" ry="14" fill="#F8F9FA" stroke="#495057" stroke-width="1.6" /><text x="140" y="138.15" fill="#111111" text-anchor="middle" font-family="'IBM Plex Sans', 'DejaVu Sans', sans-serif" font-size="15" font-weight="650">Start</text><text x="140" y="160.86" fill="#111111" text-anchor="middle" font-family="'IBM Plex Sans', 'DejaVu Sans', sans-serif" font-size="11" font-weight="450" opacity="0.85">Receive request</text></g><g id="fetch"><rect x="236" y="110.5" width="156" height="72" rx="14" ry="14" fill="#000000" opacity="0.03" /><rect x="234.4" y="109.5" width="159.2" height="75.2" rx="15.6" ry="15.6" fill="#000000" opacity="0.03" /><rect x="232.8" y="108.5" width="162.4" height="78.4" rx="17.2" ry="17.2" fill="#000000" opacity="0.02" /><rect x="231.2" y="107.5" width="165.6" height="81.6" rx="18.8" ry="18.8" fill="#000000" opacity="0.02" /><rect x="229.6" y="106.5" width="168.8" height="84.8" rx="20.4" ry="20.4" fill="#000000" opacity="0.01" /><rect x="228" y="105.5" width="172" height="88" rx="22" ry="22" fill="#000000" opacity="0" /><rect x="236" y="110.5" width="156" height="72" rx="14" ry="14" fill="#FFF3E0" stroke="#495057" stroke-width="1.6" /><text x="314" y="138.15" fill="#111111" text-anchor="middle" font-family="'IBM Plex Sans', 'DejaVu Sans', sans-serif" font-size="15" font-weight="650">Fetch Data</text><text x="314" y="160.86" fill="#111111" text-anchor="middle" font-family="'IBM Plex Sans', 'DejaVu Sans', sans-serif" font-size="11" font-weight="450" opacity="0.85">Load source tables</text></g><g id="retry"><rect x="410" y="110.5" width="191" height="72" rx="14" ry="14" fill="#000000" opacity="0.03" /><rect x="408.4" y="109.5" width="194.2" height="75.2" rx="15.6" ry="15.6" fill="#000000" opacity="0.03" /><rect x="406.8" y="108.5" width="197.4" height="78.4" rx="17.2" ry="17.2" fill="#000000" opacity="0.02" /><rect x="405.2" y="107.5" width="200.6" height="81.6" rx="18.8" ry="18.8" fill="#000000" opacity="0.02" /><rect x="403.6" y="106.5" width="203.8" height="84.8" rx="20.4" ry="20.4" fill="#000000" opacity="0.01" /><rect x="402" y="105.5" width="207" height="88" rx="22" ry="22" fill="#000000" opacity="0" /><rect x="410" y="110.5" width="191" height="72" rx="14" ry="14" fill="#FFF2CC" stroke="#495057" stroke-width="1.6" /><text x="505.5" y="138.15" fill="#111111" text-anchor="middle" font-family="'IBM Plex Sans', 'DejaVu Sans', sans-serif" font-size="15" font-weight="650">Retry</text><text x="505.5" y="160.86" fill="#111111" text-anchor="middle" font-family="'IBM Plex Sans', 'DejaVu Sans', sans-serif" font-size="11" font-weight="450" opacity="0.85">Loop on transient failure</text></g><g id="done"><rect x="734.7" y="110.5" width="156" height="72" rx="14" ry="14" fill="#000000" opacity="0.03" /><rect x="733.1" y="109.5" width="159.2" height="75.2" rx="15.6" ry="15.6" fill="#000000" opacity="0.03" /><rect x="731.5" y="108.5" width="162.4" height="78.4" rx="17.2" ry="17.2" fill="#000000" opacity="0.02" /><rect x="729.9" y="107.5" width="165.6" height="81.6" rx="18.8" ry="18.8" fill="#000000" opacity="0.02" /><rect x="728.3" y="106.5" width="168.8" height="84.8" rx="20.4" ry="20.4" fill="#000000" opacity="0.01" /><rect x="726.7" y="105.5" width="172" height="88" rx="22" ry="22" fill="#000000" opacity="0" /><rect x="734.7" y="110.5" width="156" height="72" rx="14" ry="14" fill="#D9EAD3" stroke="#495057" stroke-width="1.6" /><text x="812.7" y="138.15" fill="#111111" text-anchor="middle" font-family="'IBM Plex Sans', 'DejaVu Sans', sans-serif" font-size="15" font-weight="650">Done</text><text x="812.7" y="160.86" fill="#111111" text-anchor="middle" font-family="'IBM Plex Sans', 'DejaVu Sans', sans-serif" font-size="11" font-weight="450" opacity="0.85">Return result</text></g></g></svg>