<svg xmlns="http://www.w3.org/2000/svg" width="1000" height="430" viewBox="0 0 1000 430" fill="none"><defs><filter id="drop-shadow" x="-20%" y="-20%" width="140%" height="140%"><feGaussianBlur in="SourceAlpha" stdDeviation="12" /><feOffset dx="0" dy="6" result="offsetblur" /><feComponentTransfer><feFuncA type="linear" slope="0.08" /></feComponentTransfer><feMerge><feMergeNode /><feMergeNode in="SourceGraphic" /></feMerge></filter><marker id="arrow-28792373bc" markerWidth="6" markerHeight="6" refX="6" refY="3" orient="auto" markerUnits="userSpaceOnUse"><path d="M0,0 L6,3 L0,6 z" fill="#94A3B8" /></marker><marker id="arrow-e3ff5b724f" markerWidth="6" markerHeight="6" refX="6" refY="3" orient="auto" markerUnits="userSpaceOnUse"><path d="M0,0 L6,3 L0,6 z" fill="#C0504D" /></marker></defs><rect x="0" y="0" width="1000" height="430" fill="#FFFFFF" /><g id="groups"><rect x="40" y="247.5" width="712" height="142.5" rx="20" ry="20" stroke="#E2E8F0" stroke-width="1" fill="#F8FAFC" fill-opacity="1" /><text x="64" y="266.5" fill="#64748B" font-family="Inter, -apple-system, 'SF Pro Display', system-ui, sans-serif" font-size="13" font-weight="700">Execution</text></g><g id="edges"><path d="M 224 326 L 244 326 L 276 326 L 296 326" stroke="#94A3B8" stroke-width="1.5" stroke-linecap="round" stroke-linejoin="round" marker-end="url(#arrow-28792373bc)" /><path d="M 456 326 L 472 326 L 568 326" stroke="#94A3B8" stroke-width="1.5" stroke-linecap="round" stroke-linejoin="round" marker-end="url(#arrow-28792373bc)" stroke-dasharray="8 6" /><path d="M 728 326 L 888 326 L 888 46 L 136 46 L 136 326 L 296 326" stroke="#C0504D" stroke-width="1.5" stroke-linecap="round" stroke-linejoin="round" marker-end="url(#arrow-e3ff5b724f)" /><path d="M 376 286 L 376 256 L 880 256 L 880 286" stroke="#94A3B8" stroke-width="1.5" stroke-linecap="round" stroke-linejoin="round" marker-end="url(#arrow-28792373bc)" /></g><g id="nodes"><g id="start"><rect x="64" y="286" width="160" height="80" rx="12" ry="12" fill="#FFFFFF" stroke="#CBD5E1" stroke-width="1.5" filter="url(#drop-shadow)" /><text x="84" y="328.8" fill="#0F172A" font-family="Inter, -apple-system, 'SF Pro Display', system-ui, sans-serif" font-size="16" font-weight="700">Start</text></g><g id="fetch"><rect x="296" y="286" width="160" height="80" rx="12" ry="12" fill="#FFFFFF" stroke="#CBD5E1" stroke-width="1.5" filter="url(#drop-shadow)" /><text x="316" y="328.8" fill="#0F172A" font-family="Inter, -apple-system, 'SF Pro Display', system-ui, sans-serif" font-size="16" font-weight="700">Fetch Data</text></g><g id="retry"><rect x="568" y="286" width="160" height="80" rx="12" ry="12" fill="#FDEFEF" stroke="#C0504D" stroke-width="1.5" filter="url(#drop-shadow)" /><text x="588" y="316.68" fill="#0F172A" font-family="Inter, -apple-system, 'SF Pro Display', system-ui, sans-serif" font-size="16" font-weight="700">Retry</text><text x="588" y="342.27" fill="#0F172A" font-family="Inter, -apple-system, 'SF Pro Display', system-ui, sans-serif" font-size="13" font-weight="500">Wait 5s</text></g><g id="done"><rect x="800" y="286" width="160" height="80" rx="12" ry="12" fill="#FFFFFF" stroke="#CBD5E1" stroke-width="1.5" filter="url(#drop-shadow)" /><text x="820" y="328.8" fill="#0F172A" font-family="Inter, -apple-system, 'SF Pro Display', system-ui, sans-serif" font-size="16" font-weight="700">Done</text></g></g></svg>